<?xml version="1.0" encoding="utf-8"?>
<!-- Generator: Adobe Illustrator 26.0.3, SVG Export Plug-In . SVG Version: 6.00 Build 0)  -->
<svg version="1.1" id="图层_1" xmlns="http://www.w3.org/2000/svg" xmlns:xlink="http://www.w3.org/1999/xlink" x="0px" y="0px"
	 viewBox="0 0 30 30" style="enable-background:new 0 0 30 30;" xml:space="preserve">
<style type="text/css">
	.st0{fill:#F2F2F2;stroke:#FFFFFF;stroke-miterlimit:10;}
	.st1{fill:#E2BB8B;}
	.st2{fill:#DF1317;stroke:#0A69AA;stroke-width:0.16;stroke-miterlimit:1.6;}
	.st3{fill:#E4934B;}
	.st4{fill:none;stroke:#91BCC6;stroke-width:0.16;stroke-miterlimit:1.6;}
	.st5{fill:#07ABCC;}
	.st6{fill:#E1E7E7;}
</style>
<rect x="0.1" y="0" class="st0" width="30" height="30"/>
<g>
	<path class="st1" d="M19.5,11.2c-1.3-0.6-3-1.2-4.7-1.2s-3.4,0.6-4.7,1.2c-3.4,1.7-5.7,5.2-5.7,9.2v6.9c0,1.3,1.1,2.5,2.6,2.5h15.8
		c1.5,0,2.6-1.2,2.6-2.5v-6.9C25.4,16.5,22.9,12.9,19.5,11.2z"/>
	<path class="st2" d="M15.8,15.4h-1.9l-0.8-1.9c-0.2-0.4,0-0.8,0.4-0.8h0.2h2.3c0.4-0.2,0.8,0.4,0.6,0.8L15.8,15.4z"/>
	<path class="st2" d="M16.7,25.6l-1.1,1.3c-0.4,0.4-0.9,0.4-1.3,0l-1.3-1.3c-0.2-0.2-0.2-0.6-0.2-0.8l1.1-9.4h2.1l1.1,9.4
		C16.9,25.2,16.9,25.4,16.7,25.6z"/>
	<ellipse class="st3" cx="14.8" cy="6.9" rx="6.8" ry="6.9"/>
	<path class="st4" d="M10.5,6.2H8.8"/>
	<path class="st4" d="M10.5,6.2v0.6c0,0.4,0.4,0.6,0.8,0.6h1.7c0.4,0,0.8-0.2,0.8-0.6V6.2"/>
	<path class="st4" d="M13.9,6.2V5.8c0-0.4-0.2-0.8-0.6-0.8l0,0h-2.1c-0.4,0-0.8,0.4-0.8,0.8l0,0v0.4"/>
	<path class="st4" d="M19,6.2V5.8C19,5.4,18.8,5,18.4,5l0,0h-2.1c-0.4,0-0.8,0.4-0.8,0.8l0,0v0.4"/>
	<path class="st4" d="M15.6,6.2v0.6c0,0.4,0.4,0.6,0.8,0.6H18c0.4,0,0.8-0.2,0.8-0.6V6.2"/>
	<path class="st4" d="M20.8,6.2H19"/>
	<path class="st4" d="M15.6,6.2h-1.7"/>
	<path class="st5" d="M20.1,27.1H9.5c-0.8,0-1.5-0.6-1.5-1.5v-7.1c0-0.8,0.6-1.5,1.5-1.5h10.6c0.8,0,1.5,0.6,1.5,1.5v7.1
		C21.6,26.5,20.8,27.1,20.1,27.1L20.1,27.1z"/>
	<path class="st6" d="M16.7,28.6v-4.4c0-0.8-0.6-1.2-1.1-1.2l0,0h-1.5c-0.8,0-1.1,0.6-1.1,1.2l0,0v4.4H8V30h13.6v-1.3H16.7z"/>
</g>
</svg>
