<?xml version="1.0" encoding="utf-8"?>
<!-- Generator: Adobe Illustrator 26.0.3, SVG Export Plug-In . SVG Version: 6.00 Build 0)  -->
<svg version="1.1" id="图层_1" xmlns="http://www.w3.org/2000/svg" xmlns:xlink="http://www.w3.org/1999/xlink" x="0px" y="0px"
	 viewBox="0 0 30 30" style="enable-background:new 0 0 30 30;" xml:space="preserve">
<style type="text/css">
	.st0{fill:#DFFFDE;stroke:#FFFFFF;stroke-miterlimit:10;}
	.st1{fill:url(#SVGID_1_);}
</style>
<rect x="0.1" y="0" class="st0" width="30" height="30"/>
<linearGradient id="SVGID_1_" gradientUnits="userSpaceOnUse" x1="4.704681e-02" y1="17" x2="29.953" y2="17" gradientTransform="matrix(1 0 0 -1 0 32)">
	<stop  offset="7.821229e-02" style="stop-color:#9DC93A"/>
	<stop  offset="0.165" style="stop-color:#93C443"/>
	<stop  offset="0.3132" style="stop-color:#78B75C"/>
	<stop  offset="0.5049" style="stop-color:#4CA285"/>
	<stop  offset="0.7303" style="stop-color:#0F84BC"/>
	<stop  offset="0.7821" style="stop-color:#007DCA"/>
</linearGradient>
<path class="st1" d="M28,12.3c0.7-2,0.5-4.3-0.6-6.1c-1.7-2.9-5-4.3-8.2-3.6C17.7,0.9,15.6,0,13.4,0c-3.3,0-6.3,2.1-7.3,5.2
	C4,5.7,2.1,7,1.1,8.9c-1.7,2.8-1.3,6.4,0.9,8.9c-0.7,2-0.5,4.3,0.6,6.1c1.7,2.9,5,4.3,8.2,3.6c1.4,1.6,3.5,2.5,5.7,2.5
	c3.3,0,6.3-2.1,7.3-5.2c2.1-0.4,4-1.8,5.1-3.6C30.6,18.3,30.2,14.7,28,12.3L28,12.3z M16.6,28c-1.3,0-2.6-0.5-3.6-1.3
	c0,0,0.1-0.1,0.2-0.1l6-3.5c0.3-0.2,0.5-0.5,0.5-0.9v-8.4l2.6,1.5c0,0,0,0,0,0.1v7C22.3,25.5,19.7,28,16.6,28L16.6,28z M4.4,22.9
	c-0.7-1.1-0.9-2.5-0.7-3.8c0,0,0.1,0.1,0.2,0.1l6,3.5c0.3,0.2,0.7,0.2,1,0l7.4-4.2v2.9v0.1L12.2,25C9.4,26.5,6,25.6,4.4,22.9
	L4.4,22.9z M2.8,9.8c0.7-1.1,1.7-2,3-2.5c0,0.1,0,0.1,0,0.2v6.9c0,0.4,0.2,0.7,0.5,0.8l7.4,4.2L11.1,21H11l-6.1-3.5
	C2.2,16,1.2,12.5,2.8,9.8L2.8,9.8z M23.8,14.7l-7.4-4.2L18.9,9C19,9,19,9,19,9l6.1,3.5c2.7,1.6,3.6,5,2.1,7.7c-0.7,1.1-1.7,2-3,2.5
	v-7.1C24.3,15.2,24.1,14.8,23.8,14.7L23.8,14.7z M26.3,10.9c0,0-0.1-0.1-0.2-0.1l-6-3.5c-0.3-0.2-0.7-0.2-1,0l-7.4,4.2V8.6V8.5
	L17.8,5c2.7-1.6,6.2-0.6,7.8,2.1C26.3,8.3,26.5,9.6,26.3,10.9L26.3,10.9z M10.3,16.1l-2.6-1.5c0,0,0,0,0-0.1v-7
	c0-3.1,2.5-5.6,5.7-5.6C14.7,2,16,2.4,17,3.3c0,0-0.1,0.1-0.2,0.1l-6,3.5c-0.3,0.2-0.5,0.5-0.5,0.8L10.3,16.1L10.3,16.1z M11.7,13.1
	l3.3-1.9l3.3,1.9v3.8L15,18.8l-3.3-1.9V13.1z"/>
</svg>
