<?xml version="1.0" encoding="utf-8"?>
<!-- Generator: Adobe Illustrator 26.0.3, SVG Export Plug-In . SVG Version: 6.00 Build 0)  -->
<svg version="1.1" id="圖層_1" xmlns="http://www.w3.org/2000/svg" xmlns:xlink="http://www.w3.org/1999/xlink" x="0px" y="0px"
	 viewBox="0 0 16 16" style="enable-background:new 0 0 16 16;" xml:space="preserve">
<style type="text/css">
	.st0{fill:#818482;}
	.st1{fill:#C2EFC2;}
	.st2{fill:#69E0A4;}
	.st3{font-family:'TimesNewRomanPS-BoldMT';}
	.st4{font-size:1.9548px;}
	.st5{fill:#11E4F4;}
	.st6{fill:#316AF7;}
	.st7{fill:#F9D315;}
	.st8{fill:#3D4499;}
	.st9{fill:#10A83A;}
	.st10{fill:#E6501D;}
	.st11{fill:#C1D72C;}
	.st12{fill:#C1481E;}
	.st13{fill:#36449A;}
	.st14{fill:#45B143;}
	.st15{fill:#E5E52C;}
	.st16{fill:#602C8C;}
	.st17{fill:#673F95;}
	.st18{fill:#864195;}
	.st19{fill:#FFFFFF;}
	.st20{fill:#481210;}
	.st21{fill:#E63935;}
	.st22{fill:none;}
	.st23{fill:#4B2B13;}
	.st24{fill:#F18D24;}
	.st25{fill:#28371B;}
	.st26{fill:#7DB641;}
	.st27{fill:#4E4721;}
	.st28{fill:#F8E60C;}
	.st29{fill:#062C17;}
	.st30{fill:#0F9247;}
	.st31{fill:#11512C;}
	.st32{fill:#410D28;}
	.st33{fill:#CC267D;}
	.st34{fill:#470F2D;}
	.st35{fill:#E52188;}
	.st36{fill:#0F3632;}
	.st37{fill:#2EB29F;}
	.st38{fill:#460D0F;}
	.st39{fill:#DD2429;}
	.st40{fill:#4D3B1A;}
	.st41{fill:#F7BE20;}
	.st42{fill:#0B3347;}
	.st43{fill:#2BAAE2;}
	.st44{fill:#221028;}
	.st45{fill:#6B3682;}
	.st46{fill:#D82318;}
	.st47{fill:#E96905;}
	.st48{fill:#031E34;}
	.st49{fill:#0B5FA5;}
	.st50{fill:#F8E80B;}
	.st51{fill:#2C9B3A;}
	.st52{fill:#01613F;}
	.st53{fill:#6A1B18;}
	.st54{fill:#0E2211;}
	.st55{fill:#6F1625;}
	.st56{fill:#78882F;}
	.st57{fill:#30A139;}
	.st58{fill:#6E2A1A;}
	.st59{fill:#AE1F24;}
	.st60{fill:#126C37;}
	.st61{fill:#C31F20;}
	.st62{fill:#0A132A;}
	.st63{fill:#244184;}
	.st64{fill:#1D1D3B;}
	.st65{fill:#042525;}
	.st66{fill:#631D21;}
	.st67{fill:#631F16;}
	.st68{fill:#14582F;}
	.st69{fill:#104827;}
	.st70{fill:#0A452C;}
	.st71{fill:#091724;}
	.st72{fill:#E97E01;}
	.st73{fill:#0D351C;}
	.st74{fill:#051F25;}
	.st75{fill:#1B853B;}
	.st76{fill:#242412;}
	.st77{fill:#102D22;}
	.st78{fill:#141E3D;}
	.st79{fill:#080A11;}
	.st80{fill:#65331A;}
	.st81{fill:#0E1F0C;}
	.st82{fill:#263B1D;}
	.st83{fill:#CF181C;}
	.st84{fill:#DF3713;}
	.st85{fill:#C4281F;}
	.st86{fill:#BE1B21;}
	.st87{fill:#A41F24;}
	.st88{fill:#EFAA02;}
	.st89{fill:#136133;}
	.st90{fill:#DE2E15;}
	.st91{fill:#0F2D50;}
	.st92{fill:#24234B;}
	.st93{fill:#080C26;}
	.st94{fill:#1A7E3B;}
	.st95{fill:#134927;}
	.st96{fill:#282720;}
	.st97{fill:#091523;}
	.st98{fill:#200B16;}
	.st99{fill:#28191A;}
	.st100{fill:#30853A;}
	.st101{fill:#281F0C;}
	.st102{fill:#0E1309;}
	.st103{fill:#19254A;}
	.st104{fill:#530B0F;}
	.st105{fill:#2D6232;}
	.st106{fill:#192447;}
	.st107{fill:#0C140D;}
	.st108{fill:#0E1008;}
	.st109{fill:#080407;}
	.st110{fill:#096535;}
	.st111{fill:#0E6736;}
	.st112{fill:#070D09;}
	.st113{fill:#0A190A;}
	.st114{fill:#3E1007;}
	.st115{fill:#3E0E08;}
	.st116{fill:#4A2C13;}
	.st117{fill:#EE8D03;}
	.st118{fill:#14502B;}
	.st119{fill:#08080B;}
	.st120{fill:#47210F;}
	.st121{fill:#B71D23;}
	.st122{fill:#123219;}
	.st123{fill:#26210C;}
	.st124{fill:#736429;}
	.st125{fill:#0E2812;}
	.st126{fill:#16274E;}
	.st127{fill:#0A0F1A;}
	.st128{fill:#D41D1A;}
	.st129{fill:#0B0C07;}
	.st130{fill:#5B0E15;}
	.st131{fill:#05050E;}
	.st132{fill:#230B07;}
	.st133{fill:#671616;}
	.st134{fill:#11080E;}
</style>
<g>
	<path class="st0" d="M0.7,3.7h14.6v9H0.7V3.7z"/>
</g>
<path class="st1" d="M15.2,3H0.9C0.5,3,0.3,3.3,0.3,3.7v9.7h15.6l0,0V3.7C15.8,3.3,15.5,3,15.2,3z M15.1,12.4v0.2H1V3.9h14.1V12.4z"
	/>
<text transform="matrix(0.9627 0 0 1 7.5817 6.75)" class="st2 st3 st4">M</text>
<text transform="matrix(0.9627 0 0 1 9.3146 6.75)" class="st5 st3 st4">C</text>
<text transform="matrix(0.9627 0 0 1 10.7584 6.75)" class="st6 st3 st4">B</text>
<text transform="matrix(0.9627 0 0 1 12.0099 6.75)" class="st7 st3 st4">RL</text>
<g>
	<path class="st8" d="M5.8,6.4C5.9,6.2,6,6.1,6.1,5.9L4.8,5.4L4.6,5.9L5.8,6.4z"/>
	<path class="st9" d="M3.3,10.3l-0.2,0.5l1.4,0.5c0-0.2,0-0.4,0-0.6L3.3,10.3z"/>
	<path class="st10" d="M4.2,7.2l0.5,0.2C5,7.2,5.2,7.1,5.3,7L4.4,6.6L4.2,7.2z"/>
	<path class="st11" d="M3.5,9.6l0.9,0.3c0-0.2-0.1-0.4-0.2-0.6L3.7,9.1L3.5,9.6z"/>
	<path class="st12" d="M2.1,9.8C2,10,1.9,10.1,1.8,10.3l1.3,0.5l0.2-0.5L2.1,9.8z"/>
	<path class="st13" d="M3.7,9.1L3.1,8.9C3,9,2.8,9.1,2.6,9.3l0.9,0.3L3.7,9.1L3.7,9.1z"/>
	<path class="st14" d="M4.4,6.6L3.5,6.3c0,0.2,0.1,0.4,0.2,0.7l0.5,0.2L4.4,6.6L4.4,6.6z"/>
	<path class="st15" d="M4.6,5.9l0.2-0.5L3.4,4.9c0,0.2,0,0.4,0,0.6L4.6,5.9z"/>
	<path class="st16" d="M4.3,8.2C4.2,8.3,4.1,8.3,4,8.4c0,0-0.1,0-0.1,0.1C4,8.7,4.1,9,4.2,9.3C4.3,9.5,4.4,9.7,4.5,10
		c0.1,0.2,0.1,0.5,0.1,0.8c0,0.2,0,0.4,0,0.6c0,0.2-0.1,0.4-0.1,0.7l0.4,0.2c0.2-0.8,0.3-1.6,0.1-2.4C4.7,9.2,4.5,8.7,4.3,8.2z"/>
	<path class="st17" d="M4.1,7.8C4,7.5,3.8,7.2,3.7,7C3.6,6.7,3.5,6.5,3.4,6.2c0-0.2-0.1-0.5-0.1-0.8c0-0.2,0-0.4,0-0.6
		s0.1-0.4,0.2-0.6L3.1,4C2.8,4.8,2.7,5.5,2.9,6.3C3.1,6.9,3.4,7.5,3.6,8c0.1,0,0.2-0.1,0.3-0.1C4,7.9,4.1,7.8,4.1,7.8z"/>
	<path class="st18" d="M2.5,9.4C2.7,9.2,2.9,9.1,3.1,9c0.2-0.2,0.5-0.3,0.7-0.4c0.1,0,0.1-0.1,0.2-0.1c0.1-0.1,0.2-0.1,0.3-0.2
		c0.4-0.3,0.9-0.6,1.3-1c0.6-0.5,1-1.2,1.2-2.1L6.4,5.1c0,0.2-0.1,0.4-0.2,0.7C6.1,5.9,6,6.1,5.9,6.3C5.7,6.5,5.5,6.7,5.3,6.9
		C5.2,7.1,5,7.2,4.8,7.3C4.5,7.5,4.3,7.6,4,7.8c0,0-0.1,0-0.1,0.1C3.8,7.9,3.7,8,3.6,8C3.1,8.3,2.7,8.6,2.2,9
		c-0.6,0.5-1,1.2-1.2,2.1l0.4,0.2c0.1-0.3,0.2-0.5,0.3-0.7C1.8,10.3,1.9,10.2,2,10C2.1,9.8,2.3,9.6,2.5,9.4z"/>
</g>
<g>
	<polyline class="st19" points="14.2,10.1 14.1,10.2 14.2,10.2 14.3,10.1 14.2,10.1 	"/>
	<polyline class="st19" points="12.8,8 12.6,8 12.5,8.2 12.7,8.3 12.8,8 	"/>
	<polyline class="st19" points="12.1,11.6 12.3,11.7 12.5,11.5 12.3,11.4 12.1,11.6 	"/>
	<polyline class="st19" points="12.9,11.3 12.9,11 12.6,11 12.6,11.4 12.7,11.4 12.7,11.5 12.9,11.5 13,11.3 12.9,11.3 	"/>
	<polyline class="st19" points="12,9.1 12.3,9.1 12.3,8.7 12,8.7 12,9.1 	"/>
	<polyline class="st19" points="11.2,11.6 11.3,11.8 11.5,11.7 11.4,11.6 11.2,11.6 	"/>
	<polyline class="st19" points="14,9.4 14.1,9.2 13.9,9.1 13.8,9.3 14,9.4 	"/>
	<polyline class="st19" points="13.6,8.2 13.4,8 13.3,8.2 13.4,8.3 13.6,8.2 	"/>
	<polyline class="st19" points="12.4,10.1 12.2,10.2 12.2,10.4 12.4,10.4 12.4,10.1 	"/>
	<polyline class="st19" points="13.6,10.6 13.7,10.7 13.9,10.6 13.7,10.5 13.6,10.6 	"/>
	<polyline class="st19" points="12.9,11.8 13,11.8 13,11.7 12.9,11.7 12.9,11.8 	"/>
	<polyline class="st19" points="12,8 11.8,7.9 11.7,8 11.8,8.1 12,8 	"/>
	<polyline class="st19" points="13.7,11 13.7,11.2 13.8,11.2 13.8,10.9 13.7,11 	"/>
	<polyline class="st19" points="13.4,11.3 13.4,11.4 13.5,11.4 13.4,11.3 13.4,11.3 	"/>
	<polyline class="st19" points="11,11.7 11,11.7 11.1,11.7 11,11.6 11,11.7 	"/>
	<polyline class="st19" points="12,11.7 12,11.9 12.1,11.8 12,11.7 12,11.7 	"/>
	<polyline class="st19" points="13.7,10 13.9,10 13.9,9.9 13.8,9.9 13.7,10 	"/>
	<polyline class="st19" points="14,11.3 14,11.4 14.2,11.4 14.1,11.3 14,11.3 	"/>
	<polyline class="st19" points="14.2,8.2 14,8.2 14,8.3 14.1,8.3 14.2,8.2 	"/>
	<polyline class="st19" points="12.3,9.3 12.4,9.2 12.3,9.2 12.3,9.2 12.3,9.3 	"/>
	<polyline class="st19" points="13.2,10.7 13.1,10.6 13,10.7 13,10.8 13.2,10.7 	"/>
	<polyline class="st19" points="13.4,9.2 13.4,9.3 13.4,9.3 13.4,9.2 13.4,9.2 	"/>
	<path class="st19" d="M10.9,11.2l0.2-0.1L11,10.8l0.1-0.1l-0.4-0.3l0,0v-0.2l0.1,0.1l0.2-0.2l-0.1,0.2H11l0,0l0.2,0.2l0,0v0.2h0.3
		v-0.1h0.2v-0.3h-0.3v0.1h-0.2l0.2-0.1l-0.1-0.1l0.1-0.3H11L11,9.8l-0.3-0.3l0.2,0.1L11,9.8l0.2-0.1l-0.1-0.2H11l0.2-0.3h-0.1
		l0.3-0.3l0,0l0.2-0.2l0.1,0.2h0.2l-0.1-0.2h-0.2v0.2l0,0h-0.1l-0.2-0.2l0.2-0.2L11,8.3l0,0l-0.2-0.2l0,0l0.1-0.2h-0.2V8l0,0
		l-0.2,0.3L10.4,8h-0.2V7.9H10V8H9.9L9.8,8.1V7.9L9.3,8v0.1c0,0,0,0-0.1,0l0,0C9.1,8.1,9,8.2,9,8.2C8.9,8.3,8.8,8.5,8.7,8.6
		c0,0,0,0.1-0.1,0.1c0,0.1-0.1,0.3,0,0.4l0,0v0.1c0,0.1,0,0.1,0,0.2v0.1c0,0.1-0.1,0.2-0.1,0.2C8.5,9.9,8.5,9.9,8.5,10
		c0,0.2,0.2,0.1,0.2,0.2v0.1l0,0c0,0.1,0.1,0.1,0.2,0.1l0,0l-0.1,0.1c0,0,0.1,0.1,0.2,0.1c0,0,0,0,0,0.1v0.1c0,0,0,0,0,0.1
		C9,10.9,9.1,11,9.2,11h0.1h0.1c0.1,0,0.2,0,0.2-0.1h0.1c0.1,0,0.1,0,0.1,0l0,0h0.1c0,0,0.1,0,0.1,0.1v0.1l0,0c0,0,0,0.1,0,0.2
		c0,0.1,0,0.1-0.1,0.2c-0.1,0.2-0.2,0.4-0.2,0.5L10,12l0,0l0.1,0.1l0.2-0.2l0,0h0.2V12l0.4-0.1l-0.1-0.3l0,0l-0.2-0.3l0.2-0.1H10.9"
		/>
	<polyline class="st19" points="10,8.9 10.2,9.1 10.3,8.8 10.4,9.3 10.4,9.3 10.3,9.6 10.3,9.4 10.3,9.4 10.3,9.1 10,9.1 10,9.4 
		10,8.9 9.9,8.9 10,8.9 	"/>
	<polyline class="st19" points="11,8.9 10.9,8.8 11,8.6 11.1,8.7 11,8.9 	"/>
	<polyline class="st19" points="9.5,9.8 9.4,9.8 9.6,9.6 9.5,9.8 	"/>
	<polyline class="st19" points="9.4,9.4 9.4,9.5 9.4,9.5 9.2,9.7 9.1,9.6 9.3,9.5 9.3,9.4 9.4,9.4 	"/>
	<polyline class="st19" points="9.4,10.3 9.4,10.3 9.4,10.4 9.4,10.4 9.4,10.3 	"/>
	<polyline class="st19" points="9.8,10.1 9.8,10.2 9.8,10 9.8,10.1 	"/>
	<polyline class="st19" points="10,10 10,10 10,10 10,10 	"/>
	<polyline class="st19" points="10,9.4 10,9.4 10,9.4 10,9.4 	"/>
	<polyline class="st19" points="9.6,10.4 9.8,10.3 9.8,10.3 9.6,10.4 9.6,10.4 	"/>
	<polyline class="st19" points="10.3,10.5 10.3,10.6 10.1,10.5 10.1,10.5 10.3,10.5 	"/>
	<polyline class="st19" points="10.5,10.8 10.5,10.9 10.4,10.9 10.5,10.8 	"/>
	<polyline class="st19" points="10.3,10.2 10.6,10.2 10.5,10 10.6,10.2 10.3,10.2 	"/>
	<polyline class="st19" points="10.5,10 10.5,9.9 10.5,9.9 10.6,9.8 10.6,9.7 10.4,9.8 10.4,9.8 10.1,9.8 10.1,9.8 10.4,9.7 
		10.8,9.7 10.8,9.7 10.8,9.7 10.5,10 	"/>
	<polyline class="st19" points="10.9,9.3 10.8,9.4 10.8,9.3 10.6,9.3 11,9.3 11,9.3 10.9,9.3 	"/>
	<polyline class="st19" points="10.6,8.8 10.5,8.8 10.3,8.5 10.3,8.5 10.3,8.6 10.6,8.8 	"/>
	<polyline class="st19" points="10,8.6 10.1,8.6 10,8.7 9.9,8.6 9.6,8.6 9.6,8.6 9.8,8.5 9.8,8.5 10,8.6 	"/>
	<polyline class="st19" points="9.1,10.5 9.2,10.5 9.2,10.8 9.1,10.8 9.1,10.5 	"/>
	<polyline class="st19" points="9.3,10.9 9.3,10.8 9.3,10.8 9.3,10.9 	"/>
	<polyline class="st19" points="9.6,10.7 9.6,10.8 9.5,10.7 9.6,10.7 9.6,10.5 9.7,10.7 9.6,10.7 	"/>
	<polyline class="st19" points="9.9,10.8 10,10.7 10,10.8 9.9,10.8 	"/>
	<polyline class="st19" points="10.2,11 10.1,11.2 10.1,11 10.2,11 	"/>
	<polyline class="st19" points="10.1,11.3 10,11.3 10,11.2 10.1,11.3 	"/>
	<polyline class="st19" points="13.2,8.9 13.3,8.8 13.2,8.7 13.1,8.8 13.2,8.9 	"/>
	<polyline class="st19" points="12.3,10.8 12.2,10.8 12.2,10.9 12.3,10.9 12.3,10.8 	"/>
	<polyline class="st19" points="11.3,11.5 11.3,11.4 11.3,11.3 11.2,11.3 11.3,11.5 	"/>
	<polyline class="st19" points="11.9,11 11.8,11.2 12,11.2 12,11 11.9,11 	"/>
	<polyline class="st19" points="12.2,11.3 12.3,11.3 12.3,11.2 12.1,11.2 12.2,11.3 	"/>
	<polyline class="st19" points="13,9.9 13,9.8 13,9.9 13,10 13,9.9 	"/>
	<path class="st19" d="M11.5,11L11.5,11l0.1-0.1L11.5,11L11.5,11 M13.4,10.8L13.4,10.8l0.1-0.1h-0.1V10.8 M13,10.6h-0.2v0.1v-0.1
		h-0.3v0.3h0.3v-0.1H13V10.6 M11.9,10.9L11.9,10.9v-0.1V10.9L11.9,10.9 M11.3,10.9h-0.2V11h0.2V10.9 M13.2,10.8L13,11l0.2,0.2
		l0.2-0.2L13.2,10.8 M11.7,11.5l0.1-0.3h-0.3l-0.1,0.3H11.7l-0.2,0.2l0.2,0.1l0.1-0.2L11.7,11.5L11.7,11.5 M12.3,10.5h-0.2l0.1,0.2
		h0.2L12.3,10.5 M12.9,10l-0.2,0.1l0.1,0.2l0.2-0.1L12.9,10 M13,10l0.2,0.1l0.1-0.1l-0.2-0.1L13,10 M13.5,10.2l-0.1-0.1l-0.1,0.1
		H13.5L13.5,10.2 M13.7,9.2h0.2V9.1h-0.2V9.2 M13.3,10.3h-0.2v0.1h0.2V10.3 M12.6,10.5h-0.2l-0.1,0.1h0.2L12.6,10.5 M13.8,10.2
		L13.8,10.2h-0.2l0.1,0.1L13.8,10.2 M13.4,9.9h0.2V9.8h-0.2V9.9 M14,9.6L14,9.6l-0.1,0.1L14,9.6L14,9.6 M14.1,8.5L14.1,8.5L14,8.6
		L14.1,8.5L14.1,8.5 M13.7,8.6h-0.2v0.1h0.2V8.6 M13.4,8.8L13.4,8.8h-0.2l0.1,0.1L13.4,8.8 M13.7,9.2h-0.2v0.1h0.2V9.2 M11.3,9.6
		l0.2,0.2l0.2-0.2l-0.2-0.2L11.3,9.6 M12.3,8.8l0.2,0.2l0.2-0.1l-0.2-0.2L12.3,8.8 M12.6,9.7l-0.2-0.2l-0.2,0.2l0.2,0.2L12.6,9.7
		 M11.9,9.9L11.9,9.9H12L12,9.7l-0.2,0.1l0.1,0.2h-0.1h-0.2l0.2,0.1L11.9,9.9 M13,9.3l0.2-0.2l-0.2-0.2l-0.2,0.2L13,9.3 M12.1,8.6
		l0.2-0.1l-0.2-0.2l0.2-0.1L12.1,8l-0.2,0.2L12,8.4l-0.2,0.1L12.1,8.6 M12.6,8.6h0.3l-0.1-0.3h-0.3L12.6,8.6 M11.3,8H11L11,8.2h0.2
		L11.3,8 M12.7,10l-0.2-0.1L12.3,10l0.2,0.1L12.7,10 M13.5,8.4h-0.2l-0.1,0.2h0.2L13.5,8.4 M12.8,9.8L13,9.7L13,9.5l-0.2,0.1
		L12.8,9.8 M12.7,10.5l0.2-0.1l-0.1-0.2l-0.2,0.1L12.7,10.5 M13.4,9.6h-0.2v0.2h0.2V9.6 M12.7,9.2l-0.2,0.2l0.2,0.1h-0.1l0.1,0.1
		l0.1-0.1l-0.1-0.1l0.1-0.1L12.7,9.2 M13.5,9.7h0.2l-0.1-0.2h-0.2L13.5,9.7 M12.1,10.5H12l-0.1,0.2h0.2V10.5 M13.2,8.2L13,8.1
		l-0.2,0.1L13,8.3L13.2,8.2 M13,9.5h0.2V9.3H13V9.5 M11.7,9.1l-0.2,0.3L12,9.5L12,9.3l0,0l0.2-0.1l-0.1-0.2L12,9.1L11.7,9.1
		 M11.9,8.2L11.6,8l-0.2,0.3l0.3,0.2L11.9,8.2"/>
	<path class="st20" d="M14.1,10.2l0.1,0.1L14.1,10.2 M14.2,10.1l-0.1,0.1L14.2,10.1 M14.2,10.1L14.2,10.1L14.2,10.1"/>
	<path class="st21" d="M14.2,10.1l-0.1,0.1l0.1,0.1l0.1-0.1L14.2,10.1L14.2,10.1"/>
	<path class="st22" d="M14.1,10.2h0.2V10h-0.2V10.2"/>
	<path class="st23" d="M12.7,11.4L12.7,11.4L12.7,11.4 M12.9,11h-0.3H12.9v0.2V11"/>
	<path class="st24" d="M12.9,11h-0.3v0.3l0,0l0,0v-0.1h0.2L12.9,11"/>
	<path class="st22" d="M12.6,11.4h0.3V11h-0.3V11.4"/>
	<path class="st25" d="M12.5,8.2h0.2H12.5 M12.5,8.1v0.1V8.1 M12.8,8l-0.1,0.2L12.8,8 M12.6,8l0.2,0.1L12.6,8"/>
	<path class="st26" d="M12.6,8v0.1v0.1h0.2h0.1L12.9,8L12.6,8"/>
	<path class="st22" d="M12.5,8.3h0.3V8h-0.3V8.3"/>
	<path class="st27" d="M12.3,11.4l0.2,0.2l-0.2,0.2l-0.2-0.1l0.1,0.1l0.2-0.2L12.3,11.4"/>
	<path class="st28" d="M12.3,11.4l-0.2,0.2l0.2,0.1l0.1,0.1l0.2-0.2L12.3,11.4"/>
	<path class="st22" d="M12.1,11.7h0.4v-0.4h-0.4V11.7"/>
	<path class="st29" d="M12.7,11.4L12.7,11.4l0.2,0.1L12.7,11.4L12.7,11.4 M13,11.3L13,11.3L13,11.3"/>
	<path class="st30" d="M12.9,11.3L12.9,11.3l-0.2,0.1v0.1l0,0l0.2,0.1V11.3L12.9,11.3L12.9,11.3"/>
	<path class="st31" d="M12.7,11.3v0.1H13v-0.1H12.7"/>
	<path class="st22" d="M12.7,11.5H13v-0.3h-0.3V11.5"/>
	<path class="st23" d="M12,9.1L12,9.1L12,9.1 M12.3,8.8v0.2V8.8 M12,8.7L12,9.1L12,8.7"/>
	<path class="st24" d="M12,8.7L12,9.1H12h0.2V8.8V8.7H12"/>
	<path class="st22" d="M12,9.1h0.3V8.7H12V9.1"/>
	<path class="st20" d="M12.8,10.8L12.8,10.8L12.8,10.8 M12.7,10.6h-0.2H12.7 M12.7,10.6L12.7,10.6L12.7,10.6"/>
	<path class="st21" d="M12.7,10.6L12.7,10.6h-0.2v0.3h0.3v-0.1l0,0l0,0L12.7,10.6L12.7,10.6L12.7,10.6"/>
	<path class="st22" d="M12.5,10.9h0.3v-0.3h-0.3V10.9"/>
	<path class="st32" d="M11.4,11.7l-0.1,0.1L11.4,11.7 M11.2,11.6l0.1,0.2L11.2,11.6 M11.4,11.6L11.4,11.6L11.4,11.6l0.1,0.1
		L11.4,11.6"/>
	<path class="st33" d="M11.4,11.6L11.4,11.6h-0.2l0.1,0.2l0.1-0.1h0.1l0,0L11.4,11.6"/>
	<path class="st22" d="M11.2,11.8h0.3v-0.2h-0.2L11.2,11.8"/>
	<path class="st34" d="M13.8,9.3L14,9.4L13.8,9.3 M14.1,9.2L14,9.4L14.1,9.2"/>
	<path class="st35" d="M13.9,9.1l-0.1,0.2L14,9.4L14,9.2L13.9,9.1"/>
	<path class="st22" d="M13.8,9.4H14V9.1h-0.2V9.4"/>
	<path class="st36" d="M13.5,8.1L13.5,8.1v0.1V8.1L13.5,8.1 M13.4,8.1l-0.1,0.1L13.4,8.1"/>
	<path class="st37" d="M13.4,8L13.4,8l-0.2,0.1l0.2,0.1l0.1-0.1L13.6,8H13.4L13.4,8"/>
	<path class="st22" d="M13.3,8.3h0.3V8h-0.3V8.3"/>
	<path class="st26" d="M12.4,10.1h-0.2v0.2h0.2V10.1"/>
	<path class="st22" d="M12.2,10.4h0.2v-0.2h-0.2V10.4"/>
	<path class="st25" d="M13.6,10.6l0.2,0.1L13.6,10.6 M13.9,10.6l-0.1,0.1L13.9,10.6 M13.7,10.5l-0.1,0.1L13.7,10.5L13.7,10.5
		L13.7,10.5"/>
	<path class="st26" d="M13.7,10.5l-0.1,0.1l0.2,0.1l0.1-0.1l0,0L13.7,10.5L13.7,10.5"/>
	<path class="st22" d="M13.6,10.7h0.2v-0.2h-0.2V10.7"/>
	<path class="st23" d="M12.9,11.7v0.1V11.7H13H12.9"/>
	<path class="st24" d="M12.9,11.7v0.1H13v-0.1H12.9"/>
	<path class="st22" d="M12.9,11.8H13v-0.2h-0.2V11.8"/>
	<path class="st29" d="M11.8,7.9L11.7,8L11.8,7.9 M11.8,7.9L11.8,7.9L11.8,7.9"/>
	<path class="st30" d="M11.8,7.9L11.7,8l0.2,0.1L12,8L11.8,7.9L11.8,7.9"/>
	<path class="st22" d="M11.7,8.1H12V7.9h-0.2V8.1"/>
	<path class="st23" d="M11.6,11.6L11.6,11.6L11.6,11.6 M11.9,11.6L11.9,11.6L11.9,11.6"/>
	<path class="st24" d="M11.7,11.5l-0.1,0.2h0.1h0.1l0.1-0.1l0.1-0.1L11.7,11.5L11.7,11.5"/>
	<path class="st22" d="M11.6,11.7h0.3v-0.3h-0.3V11.7"/>
	<path class="st38" d="M13.8,11.2h-0.2H13.8 M13.8,10.9V11V10.9"/>
	<path class="st39" d="M13.8,10.9h-0.2V11h0.2V10.9"/>
	<path class="st22" d="M13.7,11.2h0.2v-0.2h-0.2V11.2"/>
	<path class="st32" d="M13.4,11.3v0.1h0.2h-0.2V11.3 M13.4,11.3L13.4,11.3L13.4,11.3L13.4,11.3L13.4,11.3"/>
	<path class="st33" d="M13.4,11.3L13.4,11.3h-0.2v0.1h0.2V11.3L13.4,11.3"/>
	<path class="st22" d="M13.4,11.4h0.2v-0.1h-0.2V11.4"/>
	<path class="st40" d="M12.8,9.5l-0.1,0.1l-0.1-0.1l0.1,0.1L12.8,9.5 M12.7,9.4L12.7,9.4L12.7,9.4 M12.7,9.4L12.7,9.4L12.7,9.4"/>
	<path class="st41" d="M12.7,9.4L12.7,9.4L12.7,9.4h-0.2l0,0l0.1,0.1L12.7,9.4L12.7,9.4L12.7,9.4"/>
	<path class="st22" d="M12.6,9.5h0.2V9.4h-0.2V9.5"/>
	<path class="st40" d="M11.1,11.7L11,11.8L11.1,11.7 M11,11.6L11,11.6L11,11.6 M11,11.6L11,11.7L11,11.6"/>
	<path class="st41" d="M11,11.6L11,11.7l0,0l0.1,0.1l0.1-0.1L11,11.6L11,11.6"/>
	<path class="st22" d="M11,11.7h0.2v-0.2H11V11.7"/>
	<path class="st42" d="M12.1,11.8H12H12.1 M12,11.7h-0.2H12L12,11.7L12,11.7"/>
	<path class="st43" d="M12,11.7h-0.2l0.1,0.1h0.2L12,11.7L12,11.7"/>
	<path class="st22" d="M12,11.9h0.2v-0.2H12V11.9"/>
	<path class="st26" d="M13.8,9.9L13.8,9.9l0.1,0.1L13.8,9.9L13.8,9.9"/>
	<path class="st22" d="M13.7,10h0.2V9.9h-0.2V10"/>
	<path class="st25" d="M14.1,11.3L14.1,11.3v0.2V11.3L14.1,11.3"/>
	<path class="st26" d="M14.1,11.3L14,11.4l0.1,0.1V11.3L14.1,11.3"/>
	<path class="st22" d="M14,11.4h0.2v-0.2H14V11.4"/>
	<path class="st42" d="M14.1,8.3L14.1,8.3L14.1,8.3 M14,8.2L14,8.2L14,8.2 M14,8.2L14,8.2L14,8.2"/>
	<path class="st43" d="M14,8.2L14,8.2L14,8.2v0.1l0,0V8.2L14,8.2L14,8.2"/>
	<path class="st22" d="M14,8.3h0.2V8.2H14V8.3"/>
	<path class="st30" d="M12.3,9.2L12.3,9.2v0.1V9.2L12.3,9.2"/>
	<path class="st22" d="M12.3,9.3h0.2V9.2h-0.2V9.3"/>
	<path class="st23" d="M13,10.7l0.1,0.1l0.1-0.1L13,10.8L13,10.7 M13.1,10.6L13.1,10.6L13.1,10.6"/>
	<path class="st24" d="M13.1,10.6L13,10.7l0.1,0.1l0.1-0.1L13.1,10.6L13.1,10.6"/>
	<path class="st22" d="M13,10.8h0.2v-0.2H13V10.8"/>
	<path class="st38" d="M13.4,9.2L13.4,9.2l0.1,0.1L13.4,9.2L13.4,9.2"/>
	<path class="st39" d="M13.4,9.2L13.4,9.2l0.1,0.1L13.4,9.2L13.4,9.2"/>
	<path class="st22" d="M13.4,9.3h0.2V9.2h-0.2V9.3"/>
	<path class="st23" d="M11,10.8L11,11l-0.2,0.1L11,11L11,10.8"/>
	<path class="st24" d="M11,10.8l-0.2,0.1l0.1,0.1l0.2-0.1L11,10.8"/>
	<path class="st22" d="M10.8,11.2h0.3v-0.2h-0.3V11.2"/>
	<path class="st33" d="M13.2,8.7l-0.1,0.1l0.1,0.1l0.1-0.1L13.2,8.7"/>
	<path class="st22" d="M13.1,8.9h0.2V8.7h-0.2V8.9"/>
	<path class="st40" d="M12.2,10.9h0.2H12.2 M12.2,10.8v0.1V10.8L12.2,10.8L12.2,10.8"/>
	<path class="st41" d="M12.2,10.8v0.1h0.2v-0.1H12.2L12.2,10.8"/>
	<path class="st22" d="M12.2,10.9h0.2v-0.1h-0.2V10.9"/>
	<path class="st40" d="M11.3,11.3v0.1h-0.2h0.2V11.3"/>
	<path class="st41" d="M11.3,11.3h-0.2v0.1h0.2V11.3"/>
	<path class="st22" d="M11.2,11.5h0.2v-0.1h-0.2V11.5"/>
	<path class="st42" d="M11.9,11l-0.1,0.1h0.1h-0.1L11.9,11 M11.9,11L11.9,11L11.9,11"/>
	<path class="st43" d="M11.9,11l-0.1,0.1h0.1H12L12,11H11.9L11.9,11"/>
	<path class="st22" d="M11.8,11.2H12v-0.2h-0.2V11.2"/>
	<path class="st26" d="M12.3,11.2l-0.2,0.1l0.1,0.1l0.2-0.1L12.3,11.2"/>
	<path class="st22" d="M12.1,11.3h0.2V11h-0.2V11.3"/>
	<path class="st44" d="M13,9.9V10l0,0l0,0V9.9"/>
	<path class="st45" d="M13,9.8v0.1H13l0,0L13,9.8L13,9.8"/>
	<path class="st22" d="M13,10L13,10L13,9.8h-0.2L13,10"/>
	<path class="st42" d="M11.6,11L11.6,11L11.6,11 M11.4,10.9L11.4,10.9L11.4,10.9 M11.6,10.9L11.6,10.9L11.6,10.9"/>
	<path class="st43" d="M11.6,10.9L11.6,10.9L11.6,10.9L11.6,10.9L11.6,10.9L11.6,10.9L11.6,10.9"/>
	<path class="st22" d="M11.4,11h0.2v-0.1h-0.2V11"/>
	<path class="st29" d="M13.5,10.7v0.1h-0.1h0.1V10.7"/>
	<path class="st30" d="M13.4,10.7v0.1h0.1L13.4,10.7L13.4,10.7"/>
	<path class="st22" d="M13.4,10.8h0.2v-0.1h-0.2V10.8"/>
	<path class="st23" d="M12.8,10.8H13H12.8 M12.8,10.6L12.8,10.6L12.8,10.6"/>
	<path class="st24" d="M12.8,10.6L12.8,10.6v0.1H13v-0.1H12.8"/>
	<path class="st46" d="M12.8,10.7L12.8,10.7L12.8,10.7L12.8,10.7"/>
	<path class="st22" d="M12.8,10.8H13v-0.1h-0.2V10.8"/>
	<path class="st39" d="M12,10.8L12,10.8v0.1V10.8L12,10.8"/>
	<path class="st22" d="M11.9,10.9H12v-0.1h-0.2V10.9"/>
	<path class="st20" d="M11.2,10.9L11.2,10.9L11.2,10.9 M11.3,10.9V11h-0.2h0.2V10.9"/>
	<path class="st21" d="M11.3,10.9L11.3,10.9h-0.2V11h0.2V10.9"/>
	<path class="st22" d="M11.1,11h0.2v-0.1h-0.2V11"/>
	<path class="st33" d="M13.2,10.8L13,11l0.2,0.2l0.2-0.2L13.2,10.8"/>
	<path class="st22" d="M13,11.3h0.4v-0.4H13V11.3"/>
	<path class="st40" d="M11.7,11.5L11.7,11.5L11.7,11.5 M11.7,11.5L11.7,11.5L11.7,11.5 M11.7,11.4L11.7,11.4L11.7,11.4 M11.4,11.2
		v0.2V11.2"/>
	<path class="st41" d="M11.5,11.2L11.5,11.2l-0.1,0.3h0.2h0.1l0,0l0,0h0.1v-0.1v-0.2H11.5"/>
	<path class="st47" d="M11.7,11.5L11.7,11.5L11.7,11.5L11.7,11.5"/>
	<path class="st22" d="M11.4,11.5h0.3v-0.3h-0.3V11.5"/>
	<path class="st25" d="M11.6,9.2L11.6,9.2L11.6,9.2 M11.7,8.9L11.7,8.9L11.7,8.9 M11.7,8.9L11.7,8.9L11.7,8.9 M11.5,8.8L11.5,8.8
		L11.5,8.8L11.5,8.8L11.5,8.8"/>
	<path class="st26" d="M11.5,8.8L11.5,8.8l-0.1,0.1l0.2,0.1l0,0l0,0l0.1-0.1l0.1-0.1h-0.1l0,0H11.5L11.5,8.8L11.5,8.8"/>
	<path class="st22" d="M11.4,9.2h0.3V8.8h-0.3V9.2"/>
	<path class="st25" d="M12.1,10.5v0.2V10.5 M12.3,10.5h-0.2H12.3"/>
	<path class="st26" d="M12.3,10.5h-0.2l0,0v0.2h0.2V10.5"/>
	<path class="st22" d="M12.1,10.7h0.2v-0.2h-0.2V10.7"/>
	<path class="st48" d="M10.6,9.8L10.6,9.8L10.6,9.8"/>
	<path class="st49" d="M10.6,9.7l-0.2,0.1v0.1h0.1h0.1l0.1-0.1L10.6,9.7"/>
	<path class="st22" d="M10.4,9.9h0.2V9.7h-0.2V9.9"/>
	<path class="st34" d="M13,10.2h-0.2H13 M12.7,10L12.7,10L12.7,10 M12.9,10L12.9,10L12.9,10"/>
	<path class="st35" d="M12.9,10L12.9,10l-0.2,0.1l0,0l0.1,0.2h0.2H13L12.9,10"/>
	<path class="st22" d="M12.7,10.2H13V10h-0.3V10.2"/>
	<path class="st38" d="M13,10l0.2,0.1L13,10 M13.1,9.9l0.2,0.1l-0.1,0.1l0.1-0.1L13.1,9.9"/>
	<path class="st39" d="M13.1,9.9L13,10l0.2,0.1l0.1-0.1L13.1,9.9"/>
	<path class="st22" d="M13,10.1h0.2V9.9H13V10.1"/>
	<path class="st32" d="M13.4,10.2L13.4,10.2v0.1V10.2L13.4,10.2 M13.4,10.1L13.4,10.1L13.4,10.1"/>
	<path class="st33" d="M13.4,10.1L13.4,10.1l-0.1,0.1l0.1,0.1l0.1-0.1L13.4,10.1L13.4,10.1"/>
	<path class="st22" d="M13.3,10.3h0.2v-0.2h-0.2V10.3"/>
	<path class="st40" d="M13.7,9.3h0.2l0,0l0,0H13.7 M13.7,9.1L13.7,9.1L13.7,9.1L13.7,9.1L13.7,9.1"/>
	<path class="st41" d="M13.7,9.1L13.7,9.1v0.1h0.2l0,0V9.1H13.7L13.7,9.1"/>
	<path class="st22" d="M13.7,9.3h0.2V9.1h-0.2V9.3"/>
	<path class="st42" d="M13.3,10.3L13.3,10.3L13.3,10.3v0.1l0,0l0,0V10.3"/>
	<path class="st43" d="M13.3,10.3L13.3,10.3L13.3,10.3l-0.1,0.1h0.1l0,0V10.3"/>
	<path class="st22" d="M13.2,10.5h0.2v-0.1h-0.2V10.5"/>
	<path class="st42" d="M12.4,10.5h0.2H12.4 M12.5,10.4L12.5,10.4L12.5,10.4 M12.5,10.4L12.5,10.4L12.5,10.4"/>
	<path class="st43" d="M12.5,10.4L12.5,10.4l-0.1,0.1h0.2l0.1-0.1l0,0H12.5"/>
	<path class="st22" d="M12.4,10.6h0.2v-0.2h-0.2V10.6"/>
	<path class="st25" d="M13.8,10.2L13.8,10.2L13.8,10.2 M13.7,10.1L13.7,10.1L13.7,10.1L13.7,10.1L13.7,10.1 M13.7,10.1L13.7,10.1
		L13.7,10.1"/>
	<path class="st26" d="M13.7,10.1L13.7,10.1L13.7,10.1v0.1l0,0V10.1L13.7,10.1"/>
	<path class="st22" d="M13.7,10.2h0.2v-0.1h-0.2V10.2"/>
	<path class="st25" d="M13.4,9.8v0.1h0.2h-0.2V9.8"/>
	<path class="st26" d="M13.4,9.8v0.1h0.2V9.8H13.4"/>
	<path class="st22" d="M13.4,9.9h0.2V9.8h-0.2V9.9"/>
	<path class="st23" d="M14,9.6L14,9.6l-0.1,0.1L14,9.6l-0.1,0.1L14,9.6L14,9.6L14,9.6L14,9.6"/>
	<path class="st24" d="M14,9.6L14,9.6l-0.1,0.1L14,9.6L14,9.6L14,9.6"/>
	<path class="st22" d="M13.9,9.7H14V9.6h-0.2V9.7"/>
	<path class="st30" d="M14,8.6v0.1H14L14,8.6L14,8.6"/>
	<path class="st22" d="M14,8.7h0.2V8.6H14V8.7"/>
	<path class="st23" d="M13.6,8.8h0.2H13.6 M13.6,8.7v0.1V8.7"/>
	<path class="st24" d="M13.6,8.7v0.1h0.2V8.7H13.6"/>
	<path class="st22" d="M13.6,8.8h0.2V8.7h-0.2V8.8"/>
	<path class="st38" d="M13.4,8.9L13.4,8.9L13.4,8.9 M13.3,8.9L13.3,8.9L13.3,8.9 M13.4,8.9L13.4,8.9L13.4,8.9 M13.4,8.8L13.4,8.8
		L13.4,8.8"/>
	<path class="st39" d="M13.4,8.8L13.4,8.8L13.4,8.8L13.4,8.8v0.1V8.8L13.4,8.8"/>
	<path class="st22" d="M13.3,9.1h0.2V8.8h-0.2V9.1"/>
	<path class="st20" d="M13.7,9.3L13.7,9.3L13.7,9.3 M13.7,9.2v0.1V9.2"/>
	<path class="st21" d="M13.7,9.2h-0.2v0.1h0.1h0.1L13.7,9.2"/>
	<path class="st22" d="M13.6,9.4h0.2V9.2h-0.2V9.4"/>
	<path class="st36" d="M11.7,9.6l-0.2,0.2L11.7,9.6"/>
	<path class="st37" d="M11.5,9.4l-0.2,0.2l0.2,0.2l0.2-0.2L11.5,9.4"/>
	<path class="st22" d="M11.3,9.8h0.4V9.4h-0.4V9.8"/>
	<path class="st26" d="M12.6,8.7l-0.2,0.1l0.2,0.2l0.2-0.1L12.6,8.7"/>
	<path class="st22" d="M12.3,9.2h0.4V8.7h-0.4V9.2"/>
	<path class="st27" d="M11.7,10.7h-0.2H11.7 M11.7,10.6v0.1V10.6 M11.7,10.4h-0.2H11.7"/>
	<path class="st28" d="M11.7,10.4h-0.2h-0.1v0.1h0.1l0,0v0.2h0.2v-0.1V10.4"/>
	<path class="st22" d="M11.4,10.7h0.3v-0.3h-0.3V10.7"/>
	<path class="st29" d="M11.3,10.4L11.3,10.4L11.3,10.4 M11,10.4L11,10.4l0.2,0.2L11,10.4L11,10.4"/>
	<path class="st30" d="M11,10.4L11,10.4L11,10.4l0.2,0.2l0,0l0,0l0,0l0.2-0.1l0,0l0,0l0,0L11,10.4"/>
	<path class="st22" d="M11,10.6h0.3v-0.3H11V10.6"/>
	<path class="st23" d="M12.6,9.7l-0.2,0.2L12.6,9.7 M12.5,9.7L12.5,9.7L12.5,9.7 M12.3,9.5L12.3,9.5L12.3,9.5"/>
	<path class="st24" d="M12.3,9.5L12.3,9.5l-0.2,0.2l0.2,0.2l0.2-0.2l0,0L12.3,9.5"/>
	<path class="st22" d="M12.1,9.9h0.5V9.5h-0.5V9.9"/>
	<path class="st20" d="M11.6,10l0.2,0.1L11.6,10 M11.7,9.8L11.5,10L11.7,9.8"/>
	<path class="st21" d="M11.7,9.8L11.5,10h0.1l0.2,0.1l0.2-0.2l-0.1,0h-0.1L11.7,9.8L11.7,9.8"/>
	<path class="st22" d="M11.5,10.2h0.4V9.8h-0.4V10.2"/>
	<path class="st32" d="M10.7,8v0.1V8h0.2H10.7"/>
	<path class="st33" d="M10.7,8v0.1l0.2,0.1l0,0L11,8L10.7,8"/>
	<path class="st22" d="M10.6,8.2h0.2V8h-0.2V8.2"/>
	<path class="st40" d="M11.3,9.7l0.1,0.2h-0.2h0.2L11.3,9.7"/>
	<path class="st41" d="M11.3,9.7L11.3,9.7l-0.2,0.2H11l0.1,0.2h0.1h0.2L11.3,9.7"/>
	<path class="st22" d="M11,10h0.2V9.7H11V10"/>
	<path class="st27" d="M12.2,9.3l-0.1,0.1l0,0l0,0L12.2,9.3 M12.2,9.1L12,9.2L12.2,9.1L12.2,9.1L12.2,9.1"/>
	<path class="st50" d="M12.2,9.1L12,9.2l0.2,0.1l-0.1,0.1l0,0l0,0l0.1-0.1h0.1L12.2,9.1L12.2,9.1"/>
	<path class="st22" d="M12,9.3h0.3V9.1H12V9.3"/>
	<path class="st42" d="M11.4,10.7L11.4,10.7L11.4,10.7 M11.2,10.6h0.2H11.2"/>
	<path class="st43" d="M11.2,10.6L11.2,10.6v0.3h0.3v-0.1l0,0v-0.2H11.2"/>
	<path class="st51" d="M11.4,10.6v0.2l0,0V10.6L11.4,10.6L11.4,10.6"/>
	<path class="st52" d="M11.2,10.6L11.2,10.6L11.2,10.6L11.2,10.6"/>
	<path class="st22" d="M11.2,10.8h0.3v-0.3h-0.3V10.8"/>
	<path class="st29" d="M11,8.6l0.2,0.1L11,8.6 M11.3,8.5l-0.2,0.2L11.3,8.5"/>
	<path class="st30" d="M11.1,8.3L11.1,8.3l0.1,0.1L11,8.6l0.2,0.1l0,0l0.1,0.1l0.2-0.2L11.1,8.3"/>
	<path class="st22" d="M11,8.7h0.5V8.3H11V8.7"/>
	<path class="st38" d="M11.8,8.9h-0.2H11.8 M11.5,8.8L11.5,8.8L11.5,8.8 M11.7,8.6L11.7,8.6L11.7,8.6"/>
	<path class="st39" d="M11.7,8.6h-0.2v0.2l0,0l0.1,0.1l0,0h0.2V8.6L11.7,8.6"/>
	<path class="st53" d="M11.5,8.8L11.5,8.8l0.1,0.1L11.5,8.8"/>
	<path class="st22" d="M11.5,8.9h0.3V8.6h-0.3V8.9"/>
	<path class="st20" d="M11,10.4L11,10.4L11,10.4 M11.3,10.3v0.1V10.3 M11,10.2l-0.1,0.2L11,10.2 M11,10.1h0.2H11"/>
	<path class="st21" d="M11,10.1L11,10.2l-0.1,0.2H11H11l0.2-0.1l0.1,0.1v-0.1v-0.2h-0.1H11"/>
	<path class="st54" d="M11.2,10.3L11,10.4h0.2l0,0L11.2,10.3"/>
	<path class="st22" d="M10.9,10.4h0.4V10h-0.4V10.4"/>
	<path class="st23" d="M12.9,8.8l-0.2,0.2L13,9.3l-0.2-0.2L12.9,8.8 M12.9,8.8L13,8.9L12.9,8.8"/>
	<path class="st24" d="M12.9,8.8L12.9,8.8l-0.2,0.2L13,9.3l0.2-0.2L13,8.9L12.9,8.8"/>
	<path class="st22" d="M12.7,9.3h0.4V8.8h-0.4V9.3"/>
	<path class="st25" d="M12.3,8.6l-0.2,0.1L12.3,8.6 M12,8.5L12,8.5L12,8.5"/>
	<path class="st26" d="M12.1,8.4L12,8.5H12l0.2,0.2h0.1l0.2-0.1L12.1,8.4L12.1,8.4L12.1,8.4"/>
	<path class="st22" d="M12,8.7h0.4V8.4H12V8.7"/>
	<path class="st27" d="M12.8,8.4v0.2V8.4 M12.8,8.4h-0.3v0.3h0.3h-0.3V8.4H12.8"/>
	<path class="st28" d="M12.8,8.4h-0.3v0.3h0.3V8.4L12.8,8.4"/>
	<path class="st22" d="M12.5,8.7h0.3V8.4h-0.3V8.7"/>
	<path class="st34" d="M12.4,8.3l-0.1,0.1L12.4,8.3 M12.2,8.1L12,8.3L12.2,8.1L12.2,8.1L12.2,8.1"/>
	<path class="st35" d="M12.2,8.1L12,8.3l0.2,0.2h0.1l0,0l0.1-0.1l0.1-0.1L12.2,8.1L12.2,8.1"/>
	<path class="st55" d="M12.2,8.4L12.2,8.4L12.2,8.4L12.2,8.4L12.2,8.4"/>
	<path class="st22" d="M12,8.4h0.5V8.1H12V8.4"/>
	<path class="st38" d="M11,8.3h0.2H11 M11,8.1L11,8.3L11,8.1"/>
	<path class="st39" d="M11,8.1L11,8.3h0.2l0.1-0.2H11"/>
	<path class="st22" d="M11,8.3h0.2V8.1H11V8.3"/>
	<path class="st20" d="M12.4,9.8L12.3,10L12.4,9.8l0.2,0.1L12.4,9.8"/>
	<path class="st21" d="M12.4,9.8L12.3,10l0.2,0.1l0.2-0.2L12.4,9.8"/>
	<path class="st22" d="M12.3,10.2h0.4V9.8h-0.4V10.2"/>
	<path class="st32" d="M13.3,8.4l-0.1,0.2h0.2h-0.2L13.3,8.4h0.2H13.3"/>
	<path class="st33" d="M13.3,8.4l-0.1,0.2h0.2l0.1-0.2H13.3"/>
	<path class="st22" d="M13.3,8.7h0.2V8.4h-0.2V8.7"/>
	<path class="st40" d="M13,9.8l-0.2,0.1L13,9.8 M12.9,9.6L12.9,9.6L12.9,9.6"/>
	<path class="st41" d="M12.9,9.6L12.9,9.6h-0.2l0.1,0.2l0,0h0.2V9.6"/>
	<path class="st22" d="M12.7,9.8H13V9.6h-0.3V9.8"/>
	<path class="st42" d="M12.8,10.4L12.8,10.4L12.8,10.4"/>
	<path class="st43" d="M12.8,10.2l-0.2,0.1l0.1,0.2h0.1l0.1-0.1L12.8,10.2"/>
	<path class="st22" d="M12.7,10.5H13v-0.3h-0.3V10.5"/>
	<path class="st36" d="M13.4,9.6h-0.2H13.4v0.2V9.6"/>
	<path class="st37" d="M13.4,9.6h-0.2v0.2h0.2V9.6"/>
	<path class="st22" d="M13.1,9.8h0.2V9.6h-0.2V9.8"/>
	<path class="st25" d="M12.5,9.3l0.2,0.1L12.5,9.3"/>
	<path class="st26" d="M12.7,9.2l-0.2,0.2l0.2,0.1h0.1l0,0l0.1-0.1L12.7,9.2"/>
	<path class="st56" d="M12.7,9.4L12.7,9.4L12.7,9.4L12.7,9.4L12.7,9.4"/>
	<path class="st22" d="M12.5,9.5h0.3V9.2h-0.3V9.5"/>
	<path class="st25" d="M13.5,9.6l0.1,0.2L13.5,9.6 M13.7,9.5h-0.2H13.7"/>
	<path class="st26" d="M13.7,9.5h-0.2l0.1,0.2h0.2L13.7,9.5"/>
	<path class="st22" d="M13.5,9.7h0.2V9.5h-0.2V9.7"/>
	<path class="st27" d="M12,10.5h0.2L12,10.7l0.1-0.2H12"/>
	<path class="st28" d="M12,10.5l-0.1,0.2l0,0h0.2l0.1-0.2H12"/>
	<path class="st22" d="M11.9,10.7h0.2v-0.2h-0.2V10.7"/>
	<path class="st42" d="M13.2,8.3L13,8.4L13.2,8.3 M13,8.3L13,8.4L13,8.3"/>
	<path class="st43" d="M13,8.2l-0.2,0.1L13,8.4l0.2-0.1L13,8.2"/>
	<path class="st22" d="M13,8.4h0.2V8.2H13V8.4"/>
	<path class="st29" d="M13,9.5L13,9.5L13,9.5 M13,9.3v0.2V9.3"/>
	<path class="st30" d="M13,9.3v0.2h0.1h0.1V9.3l0,0H13"/>
	<path class="st22" d="M13,9.5h0.2V9.3H13V9.5"/>
	<path class="st36" d="M12,9.3L12,9.5L12,9.3 M11.7,9.1l-0.2,0.3L11.7,9.1l0.2,0.1L11.7,9.1"/>
	<path class="st37" d="M11.7,9.1l-0.2,0.3L12,9.5L12,9.3l0,0L12,9.1l0,0h-0.1L11.7,9.1"/>
	<path class="st57" d="M12,9.1L12,9.1L12,9.3l0.1-0.1L12,9.1"/>
	<path class="st22" d="M11.6,9.5h0.5V9.1h-0.5V9.5"/>
	<path class="st36" d="M11.3,8.4l0.1,0.1L11.3,8.4 M11.8,8.3l-0.2,0.2L11.8,8.3 M11.6,8.1l-0.2,0.2L11.6,8.1 M11.6,8.1l0.1,0.1
		L11.6,8.1"/>
	<path class="st37" d="M11.6,8.1l-0.2,0.2h-0.1l0.1,0.1l0.2,0.1l0.2-0.2l0,0l-0.2-0.1L11.6,8.1"/>
	<path class="st22" d="M11.3,8.6h0.5V8.1h-0.5V8.6"/>
	<path class="st25" d="M11.9,9.9L11.9,9.9L11.9,9.9 M11.7,9.7v0.1V9.7 M11.7,9.6L11.7,9.6L11.7,9.6 M12,9.6L12,9.6L12,9.6"/>
	<path class="st26" d="M12,9.6h-0.2h-0.1v0.1v0.1h0.1h0.1H12V9.6L12,9.6"/>
	<path class="st58" d="M11.7,9.8L11.7,9.8L11.7,9.8L11.7,9.8"/>
	<path class="st22" d="M11.7,9.9H12V9.6h-0.3V9.9"/>
	<path class="st32" d="M10.3,8.8l0.1,0.3L10.3,8.8 M10.9,8.7L10.9,8.7L10.9,8.7"/>
	<path class="st33" d="M10.6,9.1l-0.1-0.1l0.1-0.1l0.1,0.1L10.6,9.1 M10.9,8.7l-0.1,0.1l-0.2-0.1h-0.2l-0.2,0.1l0.1,0.3h0.2h0.2
		l-0.2-0.1L11,8.8L10.9,8.7L10.9,8.7"/>
	<path class="st59" d="M10.6,8.9l-0.1,0.1l0.2,0.1L10.6,8.9L10.6,8.9"/>
	<path class="st22" d="M10.3,9.4H11V8.6h-0.7V9.4"/>
	<path class="st41" d="M11.1,8.6L11,8.8L11,9.3H11L11,9.4l0.2,0.1l0.3-0.3l-0.2-0.1V8.8L11.1,8.6L11.1,8.6L11.1,8.6"/>
	<path class="st56" d="M11.4,8.9L11.4,8.9l0.2,0.2l0,0L11.4,8.9"/>
	<path class="st60" d="M11.2,8.7L11.2,8.7L11.2,8.7L11.2,8.7L11.2,8.7"/>
	<path class="st61" d="M11,8.8l-0.2,0.2L11,9.3H11L11,8.8"/>
	<path class="st22" d="M10.7,9.5h0.9V8.6h-0.9V9.5"/>
	<path class="st62" d="M10.6,8.7l0.1,0.1L10.6,8.7 M11,8.6l-0.2,0.2L11,8.6 M10.3,8.5L10.3,8.5L10.3,8.5 M10.8,8.2L11,8.4L10.8,8.2
		 M10.6,8.2l-0.2,0.2L10.6,8.2 M10.6,8.1L10.6,8.1L10.6,8.1"/>
	<path class="st63" d="M10.6,8.1L10.6,8.1l-0.2,0.3v0.1h-0.2l0,0l0,0l0.2,0.2l0.1,0.1h0.2l0,0L11,8.7H11l0.2-0.2l-0.2-0.2L10.6,8.1
		L10.6,8.1L10.6,8.1"/>
	<path class="st64" d="M10.7,8.1L10.7,8.1l0.2,0.1L10.7,8.1"/>
	<path class="st65" d="M11,8.4l-0.2,0.2H11L11,8.4L11,8.4"/>
	<path class="st64" d="M10.9,8.7l-0.2,0.1l0.2,0.1L10.9,8.7L10.9,8.7"/>
	<path class="st22" d="M10.3,8.9h0.9V8.1h-0.9V8.9"/>
	<path class="st25" d="M10.4,9.7h0.3H10.4 M10.6,9.3h0.2H10.6"/>
	<path class="st26" d="M10.4,9.3l-0.1,0.3v0.1l0,0h0.4h0.1l0,0h-0.1l0.2-0.3V9.3h-0.2H10.4L10.4,9.3L10.4,9.3"/>
	<path class="st66" d="M10.4,9.3L10.4,9.3h0.2H10.4"/>
	<path class="st22" d="M10.3,9.7h0.5V9.3h-0.5V9.7"/>
	<path class="st44" d="M10.8,10.9L10.6,11L10.8,10.9 M10.5,10.9L10.5,10.9L10.5,10.9 M11,10.8L11,10.8L11,10.8"/>
	<path class="st45" d="M10.7,10.4L10.7,10.4v0.2h-0.3h0.1l-0.1,0.2l0.1,0.1l0,0h0.1l0.1,0.2l0.2-0.1v-0.1l0.2-0.1l0,0h0.1h0.1
		L10.7,10.4"/>
	<path class="st67" d="M11,10.8l-0.2,0.1V11L11,10.8L11,10.8"/>
	<path class="st22" d="M10.3,11.2h0.8v-0.7h-0.8V11.2"/>
	<path class="st27" d="M10,10L10,10L10,10 M10.5,9.8v0.1V9.8"/>
	<path class="st28" d="M10.4,9.8h-0.3L10,10l0,0l0,0h0.3v0.2l0,0h0.2v-0.1h-0.1l0,0L10.4,9.8L10.4,9.8L10.4,9.8L10.4,9.8"/>
	<path class="st68" d="M10.4,9.8L10.4,9.8L10.4,9.8L10.4,9.8"/>
	<path class="st22" d="M10,10.3h0.5V9.8H10V10.3"/>
	<path class="st48" d="M10.9,9.7L10.9,9.7L10.9,9.7 M10.8,9.7L10.8,9.7L10.8,9.7 M11.3,9.5l-0.2,0.3L11.3,9.5 M11.2,9.4L11.2,9.4
		L11.2,9.4 M10.9,9.3l-0.1,0.1L10.9,9.3H11H10.9"/>
	<path class="st49" d="M10.9,9.3l-0.1,0.1l-0.1,0.3l0,0l0,0h0.1l0,0L11,9.8l0,0h0.2l0.2-0.3h-0.1l-0.1,0.1L11,9.5L10.9,9.3"/>
	<path class="st69" d="M11.2,9.7H11l0,0H11.2L11.2,9.7 M11,9.4l0.2,0.1l0.1-0.1H11"/>
	<path class="st70" d="M10.8,9.4l-0.1,0.3h0.1V9.4"/>
	<path class="st22" d="M10.7,9.9h0.6V9.3h-0.6V9.9"/>
	<path class="st29" d="M10.1,9.1L10.1,9.1L10.1,9.1 M10.3,8.9l-0.2,0.1L10.3,8.9 M10.1,8.6L10,8.7L10.1,8.6 M10.3,8.5l0.2,0.3
		L10.3,8.5"/>
	<path class="st30" d="M10.3,8.5h-0.2l0,0L10,8.7l0.2,0.3l0,0l0.1,0.1l0,0l0.2-0.1V8.9h0.2L10.3,8.5"/>
	<path class="st71" d="M10.5,8.8h-0.2v0.1L10.5,8.8"/>
	<path class="st22" d="M9.9,9.1h0.6V8.5H9.9V9.1"/>
	<path class="st23" d="M10.7,10.2l0.1,0.1L10.7,10.2 M11,10.2l-0.2,0.1L11,10.2 M10.5,10l0.1,0.1L10.5,10 M11.1,10L11.1,10L11.1,10
		 M10.6,9.9L10.5,10L10.6,9.9"/>
	<path class="st24" d="M10.8,9.7l-0.2,0.2L10.5,10v0.1l0.1,0.1l0,0h0.1l0,0l0.1,0.1l0,0l0.2-0.1l0,0v-0.1H11L11,10L10.8,9.7
		L10.8,9.7"/>
	<path class="st46" d="M11,10.1v0.1V10.1L11,10.1"/>
	<path class="st72" d="M10.5,10L10.5,10L10.5,10L10.5,10"/>
	<path class="st73" d="M10.8,9.7L10.8,9.7L10.8,9.7L10.8,9.7"/>
	<path class="st22" d="M10.5,10.3h0.7V9.7h-0.7V10.3"/>
	<path class="st74" d="M10.7,10.4l-0.3,0.2h0.1h0.3L10.7,10.4"/>
	<path class="st75" d="M10.3,10.2L10.3,10.2L10.3,10.2L10.3,10.2"/>
	<path class="st29" d="M10.7,10.3L10.7,10.3L10.7,10.3"/>
	<path class="st30" d="M10.6,10.2h-0.4l0,0v0.3v0.1h0.2l0.3-0.2l0,0L10.6,10.2L10.6,10.2"/>
	<path class="st31" d="M10.6,10.2L10.6,10.2L10.6,10.2L10.6,10.2"/>
	<path class="st22" d="M10.2,10.7h0.5v-0.5h-0.5V10.7"/>
	<path class="st23" d="M10.3,8.5L10.3,8.5L10.3,8.5 M10.4,8.1h-0.2H10.4"/>
	<path class="st24" d="M10.4,8.1L10.4,8.1h-0.2l0,0h0.1l-0.2,0.5l0.2-0.1l0.1,0.1h0.1l0.2-0.2L10.4,8.1"/>
	<path class="st23" d="M10,8.6L10,8.6L10,8.6"/>
	<path class="st24" d="M10,8.6L10,8.6L10,8.6L10,8.6"/>
	<path class="st76" d="M10.5,8.4l-0.2,0.1h0.2V8.4"/>
	<path class="st31" d="M10.3,8.5l-0.2,0.1l0,0l0,0l0,0l0,0L10.3,8.5L10.3,8.5"/>
	<path class="st22" d="M10,8.6h0.5V8.1H10V8.6"/>
	<path class="st44" d="M10.6,11.7h-0.2H10.6 M10.8,11.5v0.2V11.5"/>
	<path class="st45" d="M10.8,11.5l-0.4,0.2v0.1h0.2h0.2V11.5L10.8,11.5"/>
	<path class="st22" d="M10.3,11.8h0.5v-0.4h-0.5V11.8"/>
	<path class="st62" d="M10.4,9.7L10.4,9.7L10.4,9.7 M10,9.4L10,9.4L10,9.4"/>
	<path class="st63" d="M10,9.4L10,9.4v0.2H9.9l0.2,0.1v0.1l0.3-0.1l0,0h-0.1V9.6l-0.1-0.2H10"/>
	<path class="st77" d="M10.3,9.6L10.3,9.6L10.3,9.6L10.3,9.6L10.3,9.6"/>
	<path class="st22" d="M9.8,9.8h0.6V9.3H9.8V9.8"/>
	<path class="st62" d="M10.1,11.2L10.1,11.2L10.1,11.2 M10.6,11l0.2,0.3L10.6,11"/>
	<path class="st63" d="M10.5,10.9L10.5,10.9l-0.2,0.2L10.1,11H10l0,0v0.1l0,0l0.3,0.2v-0.1l0.4-0.1v0.1l0,0L10.5,10.9L10.5,10.9
		L10.5,10.9"/>
	<path class="st78" d="M10.6,10.9L10.6,10.9l0.1,0.2l0,0L10.6,10.9"/>
	<path class="st62" d="M10.3,11.7L10.3,11.7L10.3,11.7 M10.3,11.7L10.3,11.7L10.3,11.7"/>
	<path class="st63" d="M10.4,11.5l-0.1,0.1l0,0l0,0L10.4,11.5L10.4,11.5"/>
	<path class="st78" d="M10.8,11.4l-0.4,0.1v0.1l0,0l0,0v0.1l0.4-0.2V11.4"/>
	<path class="st22" d="M10,11.7h0.8v-0.7H10V11.7"/>
	<path class="st25" d="M10.3,11.7l-0.2,0.2L10,11.8l0.1,0.1L10.3,11.7"/>
	<path class="st26" d="M10.1,11.3L10.1,11.3L10,11.5l0,0l0.1,0.2v0.1l0.1,0.1l0.2-0.1L10.1,11.3"/>
	<path class="st77" d="M10.1,11.3l0.2,0.4l0.1-0.1l0,0L10.1,11.3"/>
	<path class="st79" d="M10.4,11.5L10.4,11.5L10.4,11.5L10.4,11.5"/>
	<path class="st22" d="M9.8,11.8h0.6v-0.5H9.8V11.8"/>
	<path class="st27" d="M10.1,11L10.1,11L10.1,11 M10.5,10.8l-0.1,0.1L10.5,10.8 M10,10.7L10,10.7L10,10.7 M10.1,10.5h0.2H10.1"/>
	<path class="st28" d="M10.1,10.5L10.1,10.5L10,10.7v0.1l0.2,0.1l-0.1,0.2h0.1l0.2-0.2l0.1-0.1l-0.2-0.2l0,0h-0.1l0,0v-0.1
		L10.1,10.5L10.1,10.5"/>
	<path class="st27" d="M9.9,10.9L9.9,10.9L9.9,10.9"/>
	<path class="st28" d="M9.9,10.9L9.9,10.9L9.9,10.9L9.9,10.9"/>
	<path class="st80" d="M10.4,10.6L10.4,10.6L10.4,10.6l0.1,0.2L10.4,10.6L10.4,10.6"/>
	<path class="st81" d="M10.4,10.6L10.4,10.6L10.4,10.6L10.4,10.6"/>
	<path class="st75" d="M10.3,10.6L10.3,10.6L10.3,10.6l0.1,0.1h0.1L10.3,10.6"/>
	<path class="st82" d="M10.4,10.9L10.2,11l0.2,0.1V10.9"/>
	<path class="st22" d="M9.9,11.2h0.6v-0.6H9.9V11.2"/>
	<path class="st23" d="M9.8,10.3H9.6H9.8 M9.8,10v0.1V10"/>
	<path class="st24" d="M9.7,10l-0.2,0.3l0,0v0.1h0.2l0,0h0.2v-0.1v-0.1L9.7,10"/>
	<path class="st22" d="M9.3,10.4h0.5V9.9H9.3V10.4"/>
	<path class="st39" d="M9.4,9.8L9.3,10l0,0l0,0h0.2H9.5l0.1-0.1L9.4,9.8L9.4,9.8L9.4,9.8"/>
	<path class="st38" d="M9.4,10.3L9.4,10.3L9.4,10.3"/>
	<path class="st39" d="M9.3,10.2v0.1l0,0l0,0V10.2"/>
	<path class="st83" d="M9.6,10H9.3v0.1l0.1,0.2l0,0L9.6,10L9.6,10"/>
	<path class="st22" d="M9.1,10.3h0.6V9.7H9.1V10.3"/>
	<path class="st20" d="M10,10.7L10,10.7L10,10.7 M10.1,10.5L10.1,10.5L10.1,10.5 M9.6,10.5l0.2,0.2L9.6,10.5"/>
	<path class="st21" d="M9.8,10.3l-0.2,0.1l0,0l0.2,0.2l0.2,0.1H10l0.1-0.2h0.1l0,0l0,0L9.8,10.3L9.8,10.3"/>
	<path class="st20" d="M9.8,10.8L9.8,10.8L9.8,10.8L9.8,10.8L9.8,10.8"/>
	<path class="st21" d="M9.8,10.8L9.8,10.8L9.8,10.8L9.8,10.8L9.8,10.8L9.8,10.8"/>
	<path class="st84" d="M10,10.5L10,10.7l0.2-0.1l0,0L10,10.5L10,10.5"/>
	<path class="st22" d="M9.6,10.8h0.6v-0.6H9.6V10.8"/>
	<path class="st32" d="M9.8,10L9.8,10L9.8,10 M10,10L10,10L10,10 M9.6,9.6L9.5,9.8L9.6,9.6"/>
	<path class="st33" d="M9.6,9.5L9.6,9.5L9.6,9.5L9.5,9.8l0.2,0.1h0.1V10l0,0h0.1l0,0H10l0,0V9.8H10l0,0l0,0H10L9.9,9.6L9.6,9.5"/>
	<path class="st85" d="M10.1,9.8H10V10L10.1,9.8"/>
	<path class="st64" d="M9.9,9.6L10,9.9h0.1l0.1-0.2L9.9,9.6L9.9,9.6"/>
	<path class="st86" d="M9.7,9.9L9.7,9.9L9.7,9.9L9.7,9.9V10V9.9"/>
	<path class="st59" d="M9.5,9.8v0.1h0.1h0.1L9.5,9.8"/>
	<path class="st87" d="M9.6,9.9L9.6,9.9L9.6,9.9L9.6,9.9L9.6,9.9"/>
	<path class="st22" d="M9.5,10.1h0.7V9.5H9.5V10.1"/>
	<path class="st40" d="M10.1,10.5L10.1,10.5L10.1,10.5 M9.8,10.3L9.8,10.3L9.8,10.3 M9.8,10.1v0.1V10.1 M10,10L10,10L10,10"/>
	<path class="st41" d="M10,10L10,10H9.9v0.1v0.1H9.8l0,0l0,0l0.2,0.1l0.2,0.2h0.1h0.1v-0.3h-0.2L10,10L10,10"/>
	<path class="st88" d="M10,10l0.1,0.2h0.2l0,0h0.1V10H10"/>
	<path class="st89" d="M10.3,10.2L10.3,10.2L10.3,10.2L10.3,10.2L10.3,10.2"/>
	<path class="st60" d="M10.3,10.2L10.3,10.2v0.3V10.2"/>
	<path class="st47" d="M9.8,10.2v0.1h0.1L9.8,10.2"/>
	<path class="st90" d="M10,10.3l-0.2,0.1v0.1h0.3L10,10.3"/>
	<path class="st61" d="M9.9,10L9.9,10l0.1,0.1L9.9,10L9.9,10"/>
	<path class="st22" d="M9.8,10.5h0.5V10H9.8V10.5"/>
	<path class="st36" d="M9.4,9.5L9.4,9.5L9.4,9.5"/>
	<path class="st37" d="M9.9,8.9L9.6,9.2L9.6,9.1l0.1,0.2H9.4v0.1l0,0l0.2,0.1V9.4l0.2,0.1V9.4H10l0,0V9.1L9.9,8.9"/>
	<path class="st91" d="M10,9.4H9.8l0.1,0.1H10h0V9.4"/>
	<path class="st92" d="M9.6,9.5L9.6,9.5l0.2,0.1l0,0L9.6,9.5"/>
	<path class="st93" d="M9.9,9.5L9.9,9.5L9.9,9.5L9.9,9.5"/>
	<path class="st22" d="M9.4,9.6H10V8.9H9.4V9.6"/>
	<path class="st25" d="M9.6,9.6L9.4,9.8L9.6,9.6 M9.2,9.6L9.2,9.6L9.2,9.6 M9.4,9.4L9.4,9.4L9.4,9.4"/>
	<path class="st26" d="M9.4,9.4L9.2,9.6l0,0l0.2,0.1v0.1l0,0l0.2-0.2l0,0H9.4V9.4L9.4,9.4L9.4,9.4"/>
	<path class="st53" d="M9.4,9.8L9.4,9.8L9.4,9.8L9.4,9.8L9.4,9.8"/>
	<path class="st66" d="M9.6,9.5L9.6,9.5L9.6,9.5L9.6,9.5"/>
	<path class="st94" d="M9.4,9.4v0.1h0.2L9.4,9.4"/>
	<path class="st22" d="M9.2,9.8h0.5V9.4H9.2V9.8"/>
	<path class="st27" d="M9.8,8.5L9.8,8.5L9.8,8.5 M9.8,8.2L9.8,8.2L9.8,8.2 M9.8,8.1L10,8.2L9.8,8.1"/>
	<path class="st28" d="M9.8,8.1v0.1l0,0l0.1,0.3l0,0l0.2,0.1L10,8.2H10l0,0L9.8,8.1"/>
	<path class="st72" d="M10,8.2L10,8.2v0.4l0,0l0,0l0.2-0.4H10L10,8.2L10,8.2L10,8.2L10,8.2"/>
	<path class="st95" d="M10.1,8.6L10.1,8.6L10.1,8.6L10.1,8.6"/>
	<path class="st22" d="M9.7,8.6h0.5V8.1H9.7V8.6"/>
	<path class="st48" d="M9.6,8.6L9.6,8.6L9.6,8.6"/>
	<path class="st49" d="M9.6,8.6H9.5L9.4,8.7h0.1l0,0L9.6,8.6L9.6,8.6L9.6,8.6"/>
	<path class="st22" d="M9.3,8.8h0.4V8.5H9.3V8.8"/>
	<path class="st20" d="M9.9,9.1L9.9,9.1L9.9,9.1 M9.9,8.6H9.6H9.9"/>
	<path class="st21" d="M9.9,8.6H9.6l0,0L9.6,8.8l0.1,0.2H10l0,0l0.2-0.1L9.9,8.7H10L9.9,8.6"/>
	<path class="st54" d="M10,8.7L10,8.7l0.2,0.3l0,0L10,8.7"/>
	<path class="st96" d="M9.6,9.1L9.6,9.1l0.1,0.1l0.2-0.1H9.6"/>
	<path class="st97" d="M9.6,8.6L9.5,8.7v0.1L9.6,8.6L9.6,8.6"/>
	<path class="st22" d="M9.4,9.2H10V8.6H9.4V9.2"/>
	<path class="st38" d="M10.3,9.1L10.3,9.1L10.3,9.1 M10,9.1L10,9.4L10,9.1"/>
	<path class="st39" d="M10,9.1L10,9.1L10,9.4l0,0l0,0l0.2-0.1l0.1,0.1l0,0l0.1-0.2V9.1H10"/>
	<path class="st98" d="M10.3,9.3L10,9.4h0.3L10.3,9.3"/>
	<path class="st99" d="M10,9.4L10,9.4L10,9.4"/>
	<path class="st22" d="M10,9.4h0.4V9.1H10V9.4"/>
	<path class="st40" d="M9.4,9.4H9.3H9.4"/>
	<path class="st41" d="M9.4,8.7L9.3,9.1H9.2v0.2l0.1,0.1h0.2h0.1V9.1h0.2L9.4,8.7L9.4,8.7L9.4,8.7"/>
	<path class="st100" d="M9.4,8.9v0.3h0.2L9.6,9.1l0,0L9.4,8.9"/>
	<path class="st69" d="M9.5,8.7L9.5,8.7L9.5,8.7L9.5,8.7L9.5,8.7L9.5,8.7"/>
	<path class="st90" d="M9.4,8.7L9.4,8.7l0.2,0.3l0,0V8.8L9.4,8.7L9.4,8.7"/>
	<path class="st101" d="M9.6,9.1L9.6,9.1L9.6,9.1L9.6,9.1"/>
	<path class="st102" d="M9.5,8.7L9.5,8.7v0.1V8.7L9.5,8.7"/>
	<path class="st22" d="M8.9,9.4h0.8V8.6H8.9V9.4"/>
	<path class="st44" d="M9.8,8.5H9.6H9.8 M9.8,8.5L9.8,8.5L9.8,8.5 M9.7,8.1H9.3l0,0l0,0H9.7"/>
	<path class="st45" d="M9.7,8.1H9.3l0,0l0,0h0.1h0.1v0.1l0.2,0.1L9.5,8.5h0.1l0.1,0.1h0.2l0,0l0,0H9.7l0.1-0.2L9.7,8.1"/>
	<path class="st80" d="M9.8,8.2L9.7,8.4h0.2L9.8,8.2"/>
	<path class="st103" d="M9.6,8.5L9.6,8.5L9.5,8.6L9.6,8.5L9.6,8.5"/>
	<path class="st22" d="M9.3,8.6h0.6V8.1H9.3V8.6"/>
	<path class="st32" d="M9.1,9.6L9.1,9.6L9.1,9.6"/>
	<path class="st33" d="M9.1,9.6L9.1,9.6v0.1L8.9,9.9L9,10.1h0.1l0.2-0.3L9.2,9.7l0,0L9.1,9.6L9.1,9.6"/>
	<path class="st59" d="M9.4,9.8l-0.2,0.3h0.2V9.8L9.4,9.8"/>
	<path class="st66" d="M9.2,9.7L9.2,9.7l0.2,0.2l0,0l0,0V9.8L9.2,9.7"/>
	<path class="st104" d="M9.4,9.8L9.4,9.8L9.4,9.8L9.4,9.8L9.4,9.8"/>
	<path class="st22" d="M8.7,10.2h0.7V9.6H8.7V10.2"/>
	<path class="st36" d="M9.5,10.7L9.5,10.7L9.5,10.7 M9.3,10.7L9.3,10.7L9.3,10.7 M9.2,10.5L9.2,10.5L9.2,10.5 M9.6,10.4L9.6,10.4
		L9.6,10.4 M9.4,10.4L9.4,10.4L9.4,10.4"/>
	<path class="st37" d="M9.4,10.4L9.4,10.4l-0.2,0.1l0,0v0.2h0.1l0,0h0.1l0.1-0.1l0.1,0.1h0.1v-0.2l0,0l0,0l0,0l0,0L9.4,10.4
		L9.4,10.4L9.4,10.4"/>
	<path class="st105" d="M9.4,10.4L9.4,10.4h0.2l0,0H9.4"/>
	<path class="st96" d="M9.6,10.4L9.6,10.4L9.6,10.4L9.6,10.4"/>
	<path class="st22" d="M9.2,10.7h0.5v-0.4H9.2V10.7"/>
	<path class="st48" d="M9.3,9.5L9.3,9.5L9.1,9.6L9.3,9.5L9.3,9.5"/>
	<path class="st49" d="M9.3,9.4H9l0,0H8.9L9,9.6l0,0L9.3,9.4L9.3,9.4L9.3,9.4"/>
	<path class="st69" d="M9.2,9.3L9.2,9.3L9,9.4l0,0L9.2,9.3L9.2,9.3"/>
	<path class="st106" d="M9,9.6L9,9.6L9,9.6L9,9.6"/>
	<path class="st22" d="M8.9,9.7h0.5V9.2H8.9V9.7"/>
	<path class="st29" d="M9.2,10.5L9.2,10.5L9.2,10.5"/>
	<path class="st30" d="M9.1,10.2l0.1,0.1l-0.2,0.1h0.2l0,0v0.1l0,0l0,0v-0.1l0,0h0.2v-0.1l-0.1-0.1l0,0L9.1,10.2"/>
	<path class="st107" d="M9.3,10.1L9.3,10.1l-0.1,0.2l0.1,0.1v-0.1V10.1L9.3,10.1L9.3,10.1"/>
	<path class="st108" d="M9.3,10.1L9.3,10.1L9.3,10.1L9.3,10.1"/>
	<path class="st71" d="M9.1,10.1L9.1,10.1L9.1,10.1l0.2,0.1l0,0L9.1,10.1L9.1,10.1"/>
	<path class="st109" d="M9.3,10.1H9.1l0,0l0.2,0.1L9.3,10.1"/>
	<path class="st110" d="M9.2,10.4L9.2,10.4v0.1h0.2v-0.1H9.2"/>
	<path class="st22" d="M8.9,10.6h0.5v-0.5H8.9V10.6"/>
	<path class="st29" d="M10.2,8H10H10.2 M10.2,8L10.2,8L10.2,8"/>
	<path class="st30" d="M10.2,8H10v0.1h0.1L10.2,8L10.2,8L10.2,8"/>
	<path class="st31" d="M10.2,8.1L10.2,8.1L10.2,8.1L10.2,8.1"/>
	<path class="st75" d="M10,8.1L10,8.1L10,8.1L10,8.1"/>
	<path class="st95" d="M10.1,8.1L10.1,8.1L10.1,8.1L10.1,8.1L10.1,8.1L10.1,8.1L10.1,8.1"/>
	<path class="st22" d="M10,8.2h0.2V8H10V8.2"/>
	<path class="st20" d="M10,11.8L10,11.8L10,11.8L10,11.8L10,11.8 M9.6,11.7l-0.1,0.1C9.6,11.8,9.6,11.8,9.6,11.7 M9.9,11.2v0.1l0,0
		C9.9,11.3,9.9,11.3,9.9,11.2"/>
	<path class="st21" d="M9.9,11.3C9.9,11.3,9.9,11.4,9.9,11.3L9.9,11.3c-0.1,0.2-0.2,0.3-0.2,0.4l-0.1,0.1H10H10l0,0l0,0l-0.2-0.2
		l0.2-0.2L9.9,11.3C9.9,11.4,9.9,11.4,9.9,11.3"/>
	<path class="st58" d="M10,11.4l-0.1,0.1l0.2,0.2v-0.1L10,11.4L10,11.4"/>
	<path class="st22" d="M9.6,11.9H10v-0.6H9.6V11.9"/>
	<path class="st29" d="M9.6,10.7l-0.1,0.1L9.6,10.7"/>
	<path class="st30" d="M9.9,10.8L9.9,10.8v0.1V10.8L9.9,10.8 M9.6,10.7l-0.1,0.1l0.1,0.1H9.6h0.1c0.1,0,0.1,0,0.1,0l-0.1-0.1V10.7"
		/>
	<path class="st29" d="M10,11.2L10,11.3L10,11.2 M9.9,11.2L9.9,11.2L9.9,11.2 M10.1,11L10.1,11L10.1,11"/>
	<path class="st30" d="M9.9,11v0.1l0,0l0,0l0.1,0.2l0.1-0.1l0.1-0.1l0,0h0.1l0,0l0,0L9.9,11"/>
	<path class="st65" d="M10.1,11.2L10.1,11.2L10.1,11.2L10.1,11.2"/>
	<path class="st111" d="M10,11.3L10,11.4l0,0l0,0L10,11.3"/>
	<path class="st75" d="M10,10.8L10,10.8c0,0.1,0,0.1,0,0.2l0.2,0.1l0.1-0.2L10,10.8"/>
	<path class="st54" d="M9.7,10.7L9.7,10.7C9.8,10.8,9.8,10.8,9.7,10.7c0.1,0.1,0.1,0.1,0.1,0.1l0,0h0.1L9.7,10.7"/>
	<path class="st112" d="M9.9,11.2v0.1C9.9,11.3,9.9,11.3,9.9,11.2"/>
	<path class="st54" d="M9.9,11.2L9.9,11.2v0.1c0,0,0,0,0,0.1H10l0,0L9.9,11.2"/>
	<path class="st113" d="M10,11.4L10,11.4L10,11.4L10,11.4"/>
	<path class="st22" d="M9.6,11.5h0.6v-0.7H9.6V11.5"/>
	<path class="st27" d="M9.3,10.9L9.3,10.9C9.3,11,9.3,11,9.3,10.9 M9.3,10.8L9.3,10.8L9.3,10.8 M9.5,10.7L9.5,10.7L9.5,10.7"/>
	<path class="st28" d="M9.3,10.7L9.3,10.7l-0.1,0.1v0.1h0.1c0.1,0,0.2,0,0.2-0.1v-0.1H9.3L9.3,10.7L9.3,10.7"/>
	<path class="st57" d="M9.4,10.7L9.4,10.7l0.1,0.1L9.4,10.7"/>
	<path class="st75" d="M9.6,10.8L9.6,10.8C9.6,10.9,9.6,10.9,9.6,10.8L9.6,10.8"/>
	<path class="st28" d="M9.3,11L9.3,11L9.3,11"/>
	<path class="st22" d="M9.1,11h0.5v-0.3H9.1V11"/>
	<path class="st32" d="M8.9,11C9,11,9,11,9.1,11h0.1l0,0C9.1,11,9,11,8.9,11"/>
	<path class="st33" d="M9.3,11L9.3,11L9.3,11 M9.2,10.8L9.2,10.8V11H9l0,0c0.1,0,0.1,0,0.2,0l0,0l0.1-0.1L9.2,10.8L9.2,10.8
		L9.2,10.8"/>
	<path class="st92" d="M9.3,10.7L9.3,10.7L9.3,10.7L9.3,10.7L9.3,10.7"/>
	<path class="st33" d="M8.9,10.8"/>
	<path class="st32" d="M8.9,10.9L8.9,10.9L8.9,10.9L8.9,10.9L8.9,10.9L8.9,10.9"/>
	<path class="st33" d="M8.9,10.9L8.9,10.9L8.9,10.9L8.9,10.9"/>
	<path class="st32" d="M9.3,11L9.3,11L9.3,11L9.3,11"/>
	<path class="st33" d="M9.3,11L9.3,11L9.3,11"/>
	<path class="st114" d="M9.2,11L9.2,11L9.2,11L9.2,11 M9.3,11L9.3,11L9.3,11"/>
	<path class="st85" d="M9.3,10.9L9.1,11l0,0h0.1l0,0l0,0l0,0L9.3,10.9"/>
	<path class="st22" d="M8.9,11h0.4v-0.3H8.9V11"/>
	<path class="st40" d="M8.7,10.4L8.7,10.4L8.7,10.4"/>
	<path class="st41" d="M8.7,10.4L8.7,10.4L8.7,10.4C8.7,10.5,8.7,10.5,8.7,10.4C8.7,10.5,8.7,10.5,8.7,10.4L8.7,10.4"/>
	<path class="st40" d="M9.1,10.7L9.1,10.7L9.1,10.7 M8.9,10.7C8.9,10.7,8.9,10.7,8.9,10.7C8.9,10.7,8.9,10.8,8.9,10.7
		C8.9,10.8,8.9,10.7,8.9,10.7C8.9,10.7,8.9,10.7,8.9,10.7 M8.8,10.5C8.9,10.5,8.9,10.5,8.8,10.5C8.9,10.5,8.9,10.5,8.8,10.5"/>
	<path class="st41" d="M8.9,10.5l-0.1,0.1l0,0l0,0C8.9,10.5,8.9,10.5,8.9,10.5L8.9,10.5c-0.1,0.1-0.2,0.1-0.1,0.2l0,0l0.1,0.1l0,0
		c0,0,0,0,0,0.1l0,0l0,0l0,0h0.2l0,0v-0.2L8.9,10.5L8.9,10.5"/>
	<path class="st60" d="M8.9,10.4L8.9,10.4L8.9,10.4l-0.1,0.1h0.2v-0.1l0,0H8.9"/>
	<path class="st41" d="M8.9,10.8C8.9,10.9,8.9,10.9,8.9,10.8"/>
	<path class="st40" d="M8.9,10.9L8.9,10.9L8.9,10.9L8.9,10.9"/>
	<path class="st41" d="M8.9,10.9L8.9,10.9L8.9,10.9L8.9,10.9"/>
	<path class="st115" d="M8.9,10.9L8.9,10.9L8.9,10.9L8.9,10.9L8.9,10.9L8.9,10.9"/>
	<path class="st61" d="M9.1,10.8H8.9l0,0l0,0l0,0l0,0l0,0l0,0H9.1L9.1,10.8"/>
	<path class="st22" d="M8.7,10.9h0.4v-0.5H8.7V10.9"/>
	<path class="st40" d="M8.6,10c-0.1,0.1-0.1,0.1-0.1,0.2c0,0.2,0.2,0.1,0.2,0.2v0.1c0,0,0.1-0.1,0-0.1c-0.1-0.1-0.2,0-0.2-0.2
		C8.6,10.1,8.6,10,8.6,10"/>
	<path class="st41" d="M8.8,9.9L8.6,10c-0.1,0.1-0.1,0.1-0.1,0.2c0,0.2,0.2,0.1,0.2,0.2v0.1l0,0h0.2l-0.1-0.3h0.1l-0.2-0.1L8.8,9.9"
		/>
	<path class="st61" d="M8.9,9.9L8.9,9.9l-0.2,0.2l0.2,0.1H9L8.9,9.9"/>
	<path class="st60" d="M8.9,10.1L8.9,10.1v0.3H9l0.2-0.1l-0.1-0.1L8.9,10.1"/>
	<path class="st102" d="M9,10.1H8.9H9L9,10.1"/>
	<path class="st40" d="M8.8,10.5L8.8,10.5L8.8,10.5"/>
	<path class="st41" d="M8.7,10.5L8.7,10.5C8.8,10.5,8.8,10.5,8.7,10.5L8.7,10.5L8.7,10.5"/>
	<path class="st116" d="M8.7,10.4"/>
	<path class="st117" d="M8.7,10.4L8.7,10.4L8.7,10.4C8.7,10.5,8.7,10.5,8.7,10.4c0,0.1,0.1,0.1,0.1,0.1l0,0l0.1-0.1v-0.1L8.7,10.4"
		/>
	<path class="st118" d="M8.9,10.4L8.9,10.4L8.9,10.4L8.9,10.4L8.9,10.4"/>
	<path class="st22" d="M8.5,10.5h0.7V9.7H8.5V10.5"/>
	<path class="st23" d="M8.7,9.7L8.7,9.7c0,0.1-0.1,0.2-0.1,0.3c0,0,0-0.1,0.1-0.1C8.6,9.9,8.7,9.8,8.7,9.7C8.7,9.8,8.7,9.7,8.7,9.7
		L8.7,9.7 M8.6,9.4C8.6,9.4,8.6,9.5,8.6,9.4c0,0.1,0.1,0.2,0.1,0.2S8.6,9.5,8.6,9.4C8.6,9.5,8.6,9.5,8.6,9.4L8.6,9.4"/>
	<path class="st24" d="M8.7,9.8v0.1C8.6,9.9,8.6,9.8,8.7,9.8 M8.9,9.5H8.6c0,0.1,0,0.1,0,0.1v0.1l0,0l0.1,0.1L8.9,9.5L8.9,9.5
		L8.9,9.5 M8.6,9.4L8.6,9.4L8.6,9.4L8.6,9.4L8.6,9.4L8.6,9.4"/>
	<path class="st86" d="M8.9,9.6L8.8,9.8h0.1l0.3-0.1L9.1,9.6l0,0H8.9L8.9,9.6"/>
	<path class="st73" d="M8.9,9.4L8.9,9.4L9,9.5h0.1L8.9,9.4"/>
	<path class="st119" d="M9,9.6L9,9.6L9,9.6L9,9.6L9,9.6"/>
	<path class="st120" d="M8.6,9.9L8.6,9.9L8.6,9.9 M8.7,9.7C8.7,9.7,8.7,9.8,8.7,9.7C8.7,9.8,8.7,9.7,8.7,9.7"/>
	<path class="st47" d="M8.7,9.7L8.7,9.7C8.7,9.7,8.7,9.8,8.7,9.7C8.6,9.8,8.6,9.8,8.6,9.9c0,0,0,0.1-0.1,0.1l0.2-0.1V9.8L8.7,9.7"/>
	<path class="st121" d="M8.8,9.8L8.8,9.8L8.8,9.8L8.8,9.8"/>
	<path class="st22" d="M8.6,10h0.5V9.3H8.6V10"/>
	<path class="st25" d="M8.6,8.8C8.6,8.9,8.6,8.9,8.6,8.8C8.6,8.9,8.6,8.9,8.6,8.8"/>
	<path class="st26" d="M8.6,8.8C8.6,8.9,8.6,8.9,8.6,8.8c-0.1,0.2-0.1,0.3,0,0.4l0.2-0.1l0.1,0.1H9L8.9,8.9L8.6,8.8"/>
	<path class="st56" d="M8.9,8.9L9,9.3l0.1-0.1l0.1,0.1V9.1L8.9,8.9"/>
	<path class="st70" d="M9,9.3L9,9.3v0.1h0.1L9,9.3"/>
	<path class="st122" d="M9.1,9.2L9,9.3v0.1h0.2L9.1,9.2L9.1,9.2"/>
	<path class="st123" d="M8.6,9.5L8.6,9.5L8.6,9.5"/>
	<path class="st124" d="M8.9,9.3L8.6,9.4l0,0c0,0,0,0,0,0.1l0,0h0.2l0,0V9.3L8.9,9.3"/>
	<path class="st125" d="M8.9,9.4L8.9,9.4L8.9,9.4L8.9,9.4L8.9,9.4"/>
	<path class="st25" d="M8.7,8.7v0.1V8.7L8.7,8.7"/>
	<path class="st26" d="M8.7,8.7L8.7,8.7L8.7,8.7"/>
	<path class="st22" d="M8.6,9.5h0.5V8.6H8.6V9.5"/>
	<path class="st36" d="M9.3,8.2C9.2,8.2,9.2,8.2,9.3,8.2C9.2,8.2,9.2,8.2,9.3,8.2"/>
	<path class="st37" d="M9.3,8.2C9.2,8.2,9.2,8.2,9.3,8.2C9.2,8.2,9.2,8.2,9.3,8.2L9.3,8.2L9.3,8.2L9.3,8.2"/>
	<path class="st126" d="M9.3,8.2L9.3,8.2c-0.1,0-0.2,0-0.2,0v0.1h0.2V8.2"/>
	<path class="st22" d="M9.2,8.3h0.2V8.2H9.2V8.3"/>
	<path class="st38" d="M8.9,8.4L8.9,8.4L8.9,8.4"/>
	<path class="st39" d="M9.2,8.2L9.2,8.2C9.1,8.2,9,8.3,9,8.3s0,0-0.1,0l0,0C8.9,8.5,8.8,8.6,8.7,8.7h0.4v0.1l0.3-0.1L9.3,8.6l0,0
		H9.3l0-0.3H9.2V8.2L9.2,8.2"/>
	<path class="st127" d="M9.5,8.6L9.5,8.6L9.5,8.6v0.1l0,0V8.6"/>
	<path class="st128" d="M9.4,8.7L9.1,8.8v0.2h0.2L9.4,8.7L9.4,8.7"/>
	<path class="st129" d="M9.4,8.7L9.4,8.7L9.4,8.7L9.4,8.7"/>
	<path class="st130" d="M9.4,8.3L9.4,8.3H9.3l0.1,0.3h0.1l0.2-0.1l0.1-0.2H9.4"/>
	<path class="st131" d="M9.5,8.5L9.4,8.6L9.5,8.5L9.5,8.5"/>
	<path class="st38" d="M8.7,8.8L8.7,8.8L8.7,8.8"/>
	<path class="st132" d="M8.7,8.7C8.7,8.7,8.7,8.8,8.7,8.7c0,0.1,0,0.1-0.1,0.1C8.7,8.8,8.7,8.8,8.7,8.7"/>
	<path class="st53" d="M9.1,8.6H8.7l0,0c0,0,0,0.1-0.1,0.1l0.2,0.1V8.7h0.2V8.6"/>
	<path class="st133" d="M9.1,8.8H8.9v0.1l0.3,0.1L9.1,8.8"/>
	<path class="st99" d="M9.2,8.2L9.2,8.2v0.1h0.1L9.2,8.2L9.2,8.2L9.2,8.2"/>
	<path class="st134" d="M9.3,8.3L9.3,8.3l0.2,0.1l0,0L9.3,8.3"/>
	<path class="st22" d="M8.6,9.1h0.9V8.2H8.6V9.1"/>
</g>
</svg>
