<?xml version="1.0" encoding="utf-8"?>
<!-- Generator: Adobe Illustrator 26.0.3, SVG Export Plug-In . SVG Version: 6.00 Build 0)  -->
<svg version="1.1" id="圖層_1" xmlns="http://www.w3.org/2000/svg" xmlns:xlink="http://www.w3.org/1999/xlink" x="0px" y="0px"
	 viewBox="0 0 16 16" style="enable-background:new 0 0 16 16;" xml:space="preserve">
<style type="text/css">
	.st0{fill:#DB8803;}
	.st1{stroke:#0A69AA;stroke-width:0.16;stroke-miterlimit:1.6;}
	.st2{fill:#F6C45E;}
	.st3{fill:none;stroke:#231815;stroke-width:0.16;stroke-miterlimit:1.6;}
	.st4{fill:#07ABCC;}
	.st5{fill:#D7F4F3;}
</style>
<g>
	<path class="st0" d="M10.5,6.1C9.8,5.8,8.9,5.5,8,5.5c-0.9,0-1.9,0.3-2.6,0.6C3.6,7,2.3,8.8,2.3,10.9v3.5c0,0.7,0.6,1.3,1.4,1.3
		h8.6c0.8,0,1.4-0.6,1.4-1.3v-3.5C13.7,8.9,12.4,7,10.5,6.1z"/>
	<path class="st1" d="M8.5,8.3h-1l-0.4-1c-0.1-0.2,0-0.4,0.2-0.4h0.1h1.2C8.8,6.8,9,7.1,8.9,7.3L8.5,8.3z"/>
	<path class="st1" d="M9,13.5l-0.6,0.7c-0.2,0.2-0.5,0.2-0.7,0l-0.7-0.7c-0.1-0.1-0.1-0.3-0.1-0.4l0.6-4.8h1.1l0.6,4.8
		C9.1,13.3,9.1,13.4,9,13.5z"/>
	<ellipse class="st2" cx="8" cy="4" rx="3.7" ry="3.5"/>
	<path class="st3" d="M5.6,3.6H4.7"/>
	<path class="st3" d="M5.6,3.6v0.3c0,0.2,0.2,0.3,0.4,0.3h1c0.2,0,0.4-0.1,0.4-0.3V3.6"/>
	<path class="st3" d="M7.5,3.6V3.4C7.5,3.2,7.4,3,7.2,3l0,0H6C5.8,3,5.6,3.2,5.6,3.4l0,0v0.2"/>
	<path class="st3" d="M10.2,3.6V3.4c0-0.2-0.1-0.4-0.3-0.4l0,0H8.8C8.6,3,8.4,3.2,8.4,3.4l0,0v0.2"/>
	<path class="st3" d="M8.4,3.6v0.3c0,0.2,0.2,0.3,0.4,0.3h1c0.2,0,0.4-0.1,0.4-0.3V3.6"/>
	<path class="st3" d="M11.3,3.6h-1"/>
	<path class="st3" d="M8.4,3.6H7.5"/>
	<path class="st4" d="M10.9,14.3H5.1c-0.4,0-0.8-0.3-0.8-0.8V9.9c0-0.4,0.3-0.8,0.8-0.8h5.8c0.4,0,0.8,0.3,0.8,0.8v3.6
		C11.7,14,11.3,14.3,10.9,14.3L10.9,14.3z"/>
	<path class="st5" d="M9,15.1v-2.3c0-0.4-0.3-0.6-0.6-0.6l0,0H7.6c-0.4,0-0.6,0.3-0.6,0.6l0,0v2.3H4.3v0.7h7.4v-0.7H9z"/>
</g>
</svg>
